<svg width="24" height="24" viewBox="0 0 24 24" fill="none" xmlns="http://www.w3.org/2000/svg">
<path d="M3.24704 15.7018L3.24713 15.702C3.7478 16.863 4.42509 17.868 5.27855 18.7214C6.13201 19.5749 7.13697 20.2522 8.29799 20.7529L8.2982 20.753C9.44955 21.2501 10.6818 21.5 12 21.5C13.3182 21.5 14.5505 21.2501 15.7018 20.753L15.702 20.7529C16.863 20.2522 17.868 19.5749 18.7214 18.7214C19.5749 17.868 20.2522 16.863 20.7529 15.702L20.753 15.7018C21.2501 14.5505 21.5 13.3182 21.5 12C21.5 10.6818 21.2501 9.44955 20.753 8.2982L20.7529 8.29799C20.2522 7.13697 19.5749 6.13201 18.7214 5.27855C17.868 4.4251 16.863 3.74747 15.702 3.24613L3.24704 15.7018ZM3.24704 15.7018C2.74991 14.5505 2.5 13.3182 2.5 12C2.5 10.6818 2.74991 9.44955 3.24704 8.2982L3.24713 8.29799M3.24704 15.7018L3.24713 8.29799M3.24713 8.29799C3.7478 7.13697 4.42509 6.13201 5.27855 5.27855M3.24713 8.29799L5.27855 5.27855M5.27855 5.27855C6.13201 4.4251 7.13697 3.74747 8.29799 3.24613L5.27855 5.27855ZM9.20711 11.5H14.7929L12 14.2929L9.20711 11.5ZM8.2982 3.24604C9.44953 2.74958 10.6818 2.5 12 2.5C13.3182 2.5 14.5505 2.74958 15.7018 3.24604H8.2982ZM12 20.5C14.3631 20.5 16.3828 19.6743 18.0286 18.0286C19.6743 16.3828 20.5 14.3631 20.5 12C20.5 9.63686 19.6743 7.61718 18.0286 5.97145C16.3828 4.32572 14.3631 3.5 12 3.5C9.63686 3.5 7.61718 4.32571 5.97145 5.97145C4.32571 7.61718 3.5 9.63686 3.5 12C3.5 14.3631 4.32572 16.3828 5.97145 18.0286C7.61718 19.6743 9.63686 20.5 12 20.5Z" fill="#058B94" stroke="#058B94"/>
</svg>
