<svg width="11" height="19" viewBox="0 0 11 19" fill="none" xmlns="http://www.w3.org/2000/svg">
<path d="M10.635 18.2598C10.165 18.7298 9.40723 18.7298 8.9372 18.2598L0.965979 10.2886C0.877054 10.1998 0.806505 10.0944 0.758369 9.97837C0.710234 9.86233 0.685456 9.73793 0.685456 9.6123C0.685456 9.48668 0.710234 9.36228 0.758369 9.24624C0.806505 9.1302 0.877054 9.02479 0.965979 8.93605L8.9372 0.964823C9.40723 0.494799 10.165 0.494799 10.635 0.964823C11.1051 1.43485 11.1051 2.19264 10.635 2.66266L3.6902 9.6171L10.6446 16.5715C11.1051 17.032 11.1051 17.7994 10.635 18.2598Z" fill="#058B94"/>
</svg>
