<svg width="49" height="50" viewBox="0 0 49 50" fill="none" xmlns="http://www.w3.org/2000/svg">
<path d="M47.746 20.3846C48.0483 22.0322 48.2131 23.7547 48.2131 25.5522C48.2131 39.6121 38.9599 49.6096 24.9843 49.6096C21.806 49.6106 18.6587 48.9747 15.7222 47.7383C12.7857 46.5019 10.1176 44.6892 7.87023 42.4037C5.62288 40.1183 3.84037 37.4049 2.62455 34.4187C1.40874 31.4324 0.783456 28.2318 0.784425 24.9997C0.783456 21.7675 1.40874 18.5669 2.62455 15.5806C3.84037 12.5944 5.62288 9.881 7.87023 7.59555C10.1176 5.31011 12.7857 3.49739 15.7222 2.26097C18.6587 1.02455 21.806 0.388664 24.9843 0.38965C31.5185 0.38965 36.9785 2.83465 41.1675 6.80465L34.3456 13.7421V13.7246C31.8061 11.2646 28.5833 10.0021 24.9843 10.0021C16.9996 10.0021 10.5096 16.8622 10.5096 24.9847C10.5096 33.1047 16.9996 39.9797 24.9843 39.9797C32.229 39.9797 37.1604 35.7672 38.1732 29.9822H24.9843V20.3846H47.7484H47.746Z" fill="#333333"/>
</svg>
