<svg width="220" height="165" viewBox="0 0 220 165" fill="none" xmlns="http://www.w3.org/2000/svg">
<rect width="220" height="165" fill="white"/>
<g clip-path="url(#clip0_10295_23462)">
<path d="M46.2986 143.532H12.688C12.688 143.532 12.0067 133.55 16.0376 133.437C20.0685 133.323 19.6143 137.86 24.6674 131.622C29.7204 125.383 35.8519 125.724 36.6467 129.41C37.4415 133.097 35.1139 136.046 39.3719 135.138C43.6299 134.231 49.7618 136.613 46.2986 143.532Z" fill="#E6E6E6"/>
<path d="M28.9261 143.535L28.8125 143.53C29.0771 136.959 30.4548 132.737 31.5642 130.351C32.7686 127.762 33.9292 126.713 33.9409 126.703L34.0164 126.788C34.0049 126.798 32.858 127.836 31.6632 130.408C30.56 132.783 29.1897 136.988 28.9261 143.535Z" fill="white"/>
<path d="M41.0914 143.548L40.9824 143.516C41.8277 140.731 43.3514 138.199 45.4171 136.146L45.4933 136.231C43.443 138.269 41.9306 140.783 41.0914 143.548Z" fill="white"/>
<path d="M17.9834 143.539L17.8708 143.524C18.2373 141.06 17.8496 138.543 16.7585 136.303C16.3113 135.364 15.7192 134.5 15.0039 133.744L15.0826 133.662C15.8075 134.427 16.4078 135.301 16.8613 136.253C17.9622 138.513 18.3534 141.053 17.9834 143.539V143.539Z" fill="white"/>
<path d="M50.8609 143.684H9.06393L9.05437 143.543C9.03046 143.191 8.49714 134.892 11.1891 131.93C11.4562 131.617 11.7859 131.364 12.1569 131.186C12.528 131.008 12.9323 130.91 13.3437 130.898C15.0983 130.848 16.201 131.504 17.0906 132.031C18.767 133.024 19.8743 133.681 23.9011 128.709C28.2631 123.324 32.9698 122.165 35.6754 122.809C37.4236 123.226 38.6284 124.402 38.981 126.038C39.3157 127.586 39.2086 129.041 39.123 130.211C39.0314 131.462 38.9592 132.45 39.4737 132.898C39.904 133.271 40.76 133.305 42.1704 133.005C45.039 132.393 49.0427 132.916 51.0519 135.51C52.1329 136.905 52.9846 139.441 50.9029 143.6L50.8609 143.684ZM9.34912 143.381H50.6727C52.2239 140.237 52.2725 137.581 50.8116 135.696C48.9683 133.316 45.1012 132.69 42.2338 133.301C40.7012 133.628 39.7883 133.574 39.2741 133.127C38.6451 132.579 38.7223 131.524 38.8199 130.189C38.904 129.04 39.0085 127.609 38.6838 126.102C38.3568 124.586 37.2345 123.493 35.6046 123.105C32.9853 122.481 28.4092 123.625 24.1371 128.901C19.9456 134.076 18.6826 133.328 16.9354 132.292C16.0349 131.758 15.0127 131.153 13.352 131.201C12.9816 131.212 12.6178 131.302 12.284 131.462C11.9502 131.623 11.6538 131.852 11.4138 132.134C8.99509 134.796 9.29007 142.258 9.34936 143.381H9.34912Z" fill="#2F2E41"/>
<path d="M187.431 143.852H146.263L146.255 143.622L144.289 87.4619H189.405L187.431 143.852ZM146.725 143.375H186.969L188.91 87.9395H144.784L146.725 143.375Z" fill="#3F3D56"/>
<path d="M156.083 97.8672H152.951V136.575H156.083V97.8672Z" fill="#035D63"/>
<path d="M168.413 97.8672H165.281V136.575H168.413V97.8672Z" fill="#035D63"/>
<path d="M180.741 97.8672H177.609V136.575H180.741V97.8672Z" fill="#035D63"/>
<path d="M215.565 103.953L215.363 103.826L164.227 71.5447L168.662 64.5332L168.864 64.6608L220.001 96.9417L215.565 103.953ZM164.886 71.3961L215.416 103.294L219.341 97.0904L168.811 65.192L164.886 71.3961Z" fill="#3F3D56"/>
<path d="M203.218 68.9431C201.731 68.0034 200.006 67.5094 198.247 67.5197C196.488 67.53 194.769 68.0442 193.294 69.0013C191.818 69.9583 190.649 71.318 189.924 72.9191C189.199 74.5202 188.95 76.2953 189.204 78.034L191.643 79.5732C191.03 78.1519 190.889 76.572 191.24 75.0648C191.591 73.5575 192.416 72.2022 193.594 71.1972C194.772 70.1921 196.241 69.5903 197.786 69.4796C199.332 69.369 200.872 69.7554 202.181 70.5824C203.491 71.4093 204.501 72.6333 205.063 74.0751C205.626 75.5169 205.712 77.1008 205.308 78.5949C204.905 80.0889 204.033 81.4147 202.82 82.378C201.608 83.3413 200.119 83.8916 198.57 83.9482L201.009 85.4875C202.69 84.9718 204.189 83.985 205.326 82.6443C206.463 81.3035 207.191 79.665 207.424 77.9233C207.656 76.1815 207.384 74.4097 206.639 72.8179C205.894 71.2261 204.707 69.8813 203.22 68.9431H203.218Z" fill="#3F3D56"/>
<path d="M217.298 143.522H0V144H217.298V143.522Z" fill="#3F3D56"/>
<path d="M94.9121 140.264H91.4305L89.7734 126.85H94.913L94.9121 140.264Z" fill="#FEB8B8"/>
<path d="M84.7168 143.492H95.6584V139.27H88.8856C87.78 139.27 86.7196 139.708 85.9378 140.489C85.156 141.27 84.7168 142.329 84.7168 143.434V143.434V143.492Z" fill="#2F2E41"/>
<path d="M93.6875 119.478L96.089 121.996L106.954 113.942L103.41 110.226L93.6875 119.478Z" fill="#FEB8B8"/>
<path d="M98.5639 123.149L93.8907 118.251L90.8301 121.165L98.3798 129.078L98.4222 129.038C98.8186 128.66 99.1366 128.209 99.3583 127.709C99.5799 127.208 99.7007 126.67 99.7139 126.123C99.7271 125.576 99.6323 125.032 99.435 124.522C99.2377 124.012 98.9417 123.545 98.5639 123.149V123.149Z" fill="#2F2E41"/>
<path d="M69.4557 82.7273C69.2354 82.3732 69.0954 81.9752 69.0457 81.5612C68.996 81.1472 69.0377 80.7274 69.168 80.3313C69.2982 79.9352 69.5138 79.5724 69.7996 79.2685C70.0853 78.9646 70.4343 78.7269 70.8219 78.5723L84.4906 43.7734L89.8186 46.9602L74.6345 80.3437C74.8515 81.0116 74.8157 81.7357 74.5338 82.379C74.2519 83.0222 73.7436 83.5398 73.1052 83.8337C72.4668 84.1275 71.7426 84.1772 71.07 83.9733C70.3973 83.7694 69.823 83.326 69.4557 82.7273V82.7273Z" fill="#FEB8B8"/>
<path d="M121.337 85.2214C120.92 85.1917 120.515 85.0711 120.151 84.8681C119.786 84.6651 119.47 84.3847 119.226 84.0466C118.981 83.7084 118.814 83.3209 118.735 82.9112C118.657 82.5015 118.67 82.0796 118.772 81.6753L98.6074 50.1857L104.319 47.75L122.447 79.6346C123.117 79.8508 123.683 80.305 124.04 80.911C124.396 81.517 124.517 82.2326 124.38 82.922C124.243 83.6114 123.858 84.2265 123.297 84.6505C122.735 85.0746 122.038 85.2781 121.337 85.2224V85.2214Z" fill="#FEB8B8"/>
<path d="M84.625 79.2435L88.1943 132.235L96.7241 131.483L98.4802 92.3874L103.247 109.178L113.533 109.93L109.461 76.7373L84.625 79.2435Z" fill="#035D63"/>
<path d="M104.753 106.672L103.247 109.178L92.7109 116.446L100.237 120.455C100.237 120.455 114.788 112.436 113.534 109.93L104.753 106.672Z" fill="#035D63"/>
<path d="M77.1562 57.803L80.1255 49.4452C80.7861 47.5856 81.8094 45.8753 83.136 44.4133C84.4627 42.9513 86.0665 41.7666 87.8545 40.9279V40.9279C91.8734 39.4489 96.2444 39.2099 100.401 40.2418L101.481 40.5098C104.363 41.2074 107.062 42.5098 109.401 44.3305C111.23 45.7714 112.877 47.5958 113.023 49.5582C113.024 49.5623 113.025 49.5664 113.027 49.5703C113.533 51.7892 113.784 63.317 113.784 63.317H109.314L110.021 78.8547L109.964 78.7422C109.964 78.7422 84.1808 83.6163 84.1808 81.1101V65.0708L83.6522 59.2633L77.1562 57.803Z" fill="#058B94"/>
<path d="M101.221 38.0696C105.167 38.0696 108.366 34.8741 108.366 30.9323C108.366 26.9904 105.167 23.7949 101.221 23.7949C97.2751 23.7949 94.0762 26.9904 94.0762 30.9323C94.0762 34.8741 97.2751 38.0696 101.221 38.0696Z" fill="#FEB8B8"/>
<path d="M102.291 27.7313L107.839 27.9534C108.537 27.9512 109.299 27.9266 109.831 27.4758C110.632 26.7954 110.498 25.5117 110.069 24.5527C108.874 21.8825 106.208 20.9259 103.28 21.0044C100.352 21.083 97.2844 22.0742 95.7079 24.5386C94.1313 27.003 93.7053 30.1149 94.2991 32.9786C94.9856 31.5224 96.0425 30.2717 97.3641 29.3511C98.6858 28.4305 100.226 27.8723 101.831 27.7322L102.291 27.7313Z" fill="#2F2E41"/>
<path d="M135.238 97.5448L115.157 83.4863C114.971 83.3551 114.844 83.1554 114.804 82.931C114.765 82.7066 114.816 82.4756 114.946 82.2887L130.707 59.8246C130.839 59.6383 131.038 59.5115 131.263 59.472C131.488 59.4325 131.719 59.4836 131.906 59.614L151.987 73.6726C152.173 73.8037 152.3 74.0034 152.34 74.2278C152.379 74.4523 152.328 74.6832 152.198 74.8701L136.437 97.3336C136.306 97.5202 136.106 97.6472 135.881 97.6868C135.656 97.7264 135.425 97.6753 135.238 97.5448V97.5448Z" fill="#058B94"/>
<path d="M139.755 82.2899L127.972 74.0406C127.835 73.9452 127.719 73.8239 127.63 73.6837C127.54 73.5434 127.48 73.387 127.451 73.2233C127.422 73.0596 127.426 72.8918 127.462 72.7295C127.498 72.5673 127.566 72.4137 127.661 72.2776C127.757 72.1415 127.878 72.0255 128.018 71.9362C128.159 71.847 128.315 71.7862 128.479 71.7574C128.643 71.7286 128.811 71.7324 128.974 71.7684C129.136 71.8045 129.29 71.8721 129.426 71.9675L141.209 80.2168C141.484 80.4095 141.672 80.7035 141.73 81.0341C141.788 81.3647 141.712 81.7049 141.519 81.9798C141.327 82.2547 141.032 82.4418 140.701 82.5C140.37 82.5581 140.03 82.4826 139.755 82.2899V82.2899Z" fill="white"/>
<path d="M137.05 86.144L125.267 77.8947C125.131 77.7994 125.015 77.6781 124.925 77.5379C124.836 77.3976 124.775 77.2411 124.746 77.0774C124.717 76.9136 124.721 76.7457 124.757 76.5833C124.793 76.421 124.86 76.2673 124.956 76.1311C125.052 75.9949 125.173 75.8789 125.314 75.7896C125.454 75.7003 125.611 75.6396 125.775 75.6108C125.939 75.5821 126.107 75.5859 126.269 75.6221C126.432 75.6583 126.586 75.7261 126.722 75.8217L138.505 84.071C138.78 84.2638 138.967 84.5577 139.025 84.8882C139.083 85.2186 139.007 85.5586 138.814 85.8333C138.622 86.1081 138.327 86.2951 137.997 86.3534C137.666 86.4117 137.326 86.3364 137.05 86.144V86.144Z" fill="white"/>
<path d="M134.317 90.0399L122.534 81.7906C122.398 81.6952 122.282 81.5739 122.192 81.4337C122.103 81.2934 122.042 81.137 122.013 80.9733C121.984 80.8096 121.988 80.6418 122.024 80.4796C122.06 80.3173 122.128 80.1637 122.224 80.0276C122.319 79.8915 122.441 79.7755 122.581 79.6862C122.721 79.597 122.878 79.5362 123.042 79.5074C123.206 79.4786 123.374 79.4824 123.536 79.5184C123.698 79.5545 123.852 79.6221 123.989 79.7175L135.772 87.9668C136.047 88.1595 136.234 88.4535 136.292 88.7841C136.35 89.1147 136.275 89.4549 136.082 89.7298C135.889 90.0047 135.595 90.1918 135.264 90.25C134.933 90.3081 134.592 90.2326 134.317 90.0399V90.0399Z" fill="white"/>
<path d="M139.72 74.6661L135.156 71.4709C135.02 71.3756 134.903 71.2543 134.814 71.1141C134.724 70.9738 134.663 70.8173 134.634 70.6535C134.606 70.4897 134.609 70.3219 134.645 70.1595C134.681 69.9971 134.749 69.8435 134.845 69.7073C134.94 69.5711 135.062 69.455 135.202 69.3658C135.343 69.2765 135.499 69.2157 135.663 69.187C135.827 69.1583 135.995 69.1621 136.158 69.1983C136.32 69.2344 136.474 69.3023 136.61 69.3978L141.174 72.593C141.45 72.7857 141.637 73.0797 141.695 73.4103C141.753 73.7409 141.678 74.0811 141.485 74.356C141.292 74.6309 140.998 74.818 140.667 74.8762C140.336 74.9343 139.995 74.8588 139.72 74.6661V74.6661Z" fill="white"/>
</g>
<defs>
<clipPath id="clip0_10295_23462">
<rect width="220" height="123" fill="white" transform="translate(0 21)"/>
</clipPath>
</defs>
</svg>
