<svg width="32" height="30" viewBox="0 0 32 30" fill="none" xmlns="http://www.w3.org/2000/svg">
<path d="M5.63574 8.38459H7.89002M7.89002 8.38459H25.9243M7.89002 8.38459V23.0573C7.89002 23.6132 8.12753 24.1464 8.55028 24.5395C8.97304 24.9326 9.54643 25.1534 10.1443 25.1534H21.4157C22.0136 25.1534 22.587 24.9326 23.0097 24.5395C23.4325 24.1464 23.67 23.6132 23.67 23.0573V8.38459H7.89002ZM11.2714 8.38459V6.28849C11.2714 5.73257 11.5089 5.19941 11.9317 4.80632C12.3545 4.41322 12.9278 4.19238 13.5257 4.19238H18.0343C18.6322 4.19238 19.2055 4.41322 19.6283 4.80632C20.0511 5.19941 20.2886 5.73257 20.2886 6.28849V8.38459M13.5257 13.6249V19.9132M18.0343 13.6249V19.9132" stroke="#FF647C" stroke-linecap="round" stroke-linejoin="round"/>
</svg>
