<svg width="11" height="19" viewBox="0 0 11 19" fill="none" xmlns="http://www.w3.org/2000/svg">
<path d="M0.364957 18.2598C0.834981 18.7298 1.59277 18.7298 2.0628 18.2598L10.034 10.2886C10.1229 10.1998 10.1935 10.0944 10.2416 9.97837C10.2898 9.86233 10.3145 9.73793 10.3145 9.6123C10.3145 9.48668 10.2898 9.36228 10.2416 9.24624C10.1935 9.1302 10.1229 9.02479 10.034 8.93605L2.0628 0.964823C1.59277 0.494799 0.834981 0.494799 0.364957 0.964823C-0.105067 1.43485 -0.105067 2.19264 0.364957 2.66266L7.3098 9.6171L0.355364 16.5715C-0.105067 17.032 -0.105067 17.7994 0.364957 18.2598Z" fill="#058B94"/>
</svg>
