<svg width="55" height="21" viewBox="0 0 55 21" fill="none" xmlns="http://www.w3.org/2000/svg">
<g filter="url(#filter0_d_1_11)">
<path d="M9.68 1.776C10.2667 1.776 10.7947 1.81867 11.264 1.904C11.744 1.98933 12.1867 2.13867 12.592 2.352L12.24 3.504C11.8453 3.32267 11.456 3.18933 11.072 3.104C10.6987 3.01867 10.2933 2.976 9.856 2.976C9.38667 2.976 8.93867 3.04533 8.512 3.184C8.08533 3.32267 7.70667 3.552 7.376 3.872C7.056 4.18133 6.8 4.592 6.608 5.104C6.416 5.60533 6.32 6.22933 6.32 6.976C6.32 8.26667 6.61333 9.248 7.2 9.92C7.78667 10.592 8.61333 10.928 9.68 10.928C10.0853 10.928 10.432 10.9067 10.72 10.864C11.0187 10.8213 11.3067 10.7467 11.584 10.64V7.84H9.68V6.688H12.96V11.552C12.5333 11.7227 12.0587 11.8667 11.536 11.984C11.0133 12.0907 10.3947 12.144 9.68 12.144C8.98667 12.144 8.336 12.032 7.728 11.808C7.13067 11.584 6.608 11.2533 6.16 10.816C5.712 10.3787 5.36 9.84 5.104 9.2C4.848 8.56 4.72 7.81867 4.72 6.976C4.72 6.13333 4.84267 5.38667 5.088 4.736C5.344 4.08533 5.69067 3.54133 6.128 3.104C6.56533 2.66667 7.088 2.336 7.696 2.112C8.304 1.888 8.96533 1.776 9.68 1.776ZM15.2026 12V4.48H16.6106V12H15.2026ZM15.9066 2.544C15.6613 2.544 15.448 2.464 15.2666 2.304C15.096 2.13333 15.0106 1.92533 15.0106 1.68C15.0106 1.43467 15.096 1.22667 15.2666 1.056C15.448 0.885333 15.6613 0.799999 15.9066 0.799999C16.1413 0.799999 16.3493 0.885333 16.5306 1.056C16.712 1.22667 16.8026 1.43467 16.8026 1.68C16.8026 1.92533 16.712 2.13333 16.5306 2.304C16.3493 2.464 16.1413 2.544 15.9066 2.544ZM22.8681 5.536H20.6601V9.904C20.6601 10.2773 20.7508 10.528 20.9321 10.656C21.1241 10.784 21.3695 10.848 21.6681 10.848C21.8815 10.848 22.1161 10.8267 22.3721 10.784C22.6281 10.7307 22.8521 10.672 23.0441 10.608L23.2681 11.68C23.0548 11.7653 22.7828 11.84 22.4521 11.904C22.1215 11.968 21.7748 12 21.4121 12C20.6655 12 20.1215 11.84 19.7801 11.52C19.4388 11.1893 19.2681 10.7147 19.2681 10.096V5.536H18.1481V4.48H19.2681V2.08H20.6601V4.48H22.8681V5.536ZM24.9363 12V1.92H26.4083V6.16H31.1923V1.92H32.6643V12H31.1923V7.408H26.4083V12H24.9363ZM40.0499 4.48H41.4579V12H40.3539L40.1619 11.056H40.0979C39.8205 11.3653 39.4739 11.6267 39.0579 11.84C38.6525 12.0427 38.1779 12.144 37.6339 12.144C36.8552 12.144 36.2205 11.9253 35.7299 11.488C35.2499 11.04 35.0099 10.368 35.0099 9.472V4.48H36.4179V9.296C36.4179 9.616 36.4552 9.888 36.5299 10.112C36.6152 10.336 36.7219 10.5173 36.8499 10.656C36.9885 10.784 37.1485 10.88 37.3299 10.944C37.5112 10.9973 37.7085 11.024 37.9219 11.024C38.3485 11.024 38.7325 10.9333 39.0739 10.752C39.4152 10.5707 39.7405 10.32 40.0499 10V4.48ZM50.5789 8.24C50.5789 8.83733 50.4882 9.376 50.3069 9.856C50.1255 10.336 49.8802 10.7467 49.5709 11.088C49.2615 11.4293 48.8989 11.6907 48.4829 11.872C48.0669 12.0533 47.6242 12.144 47.1549 12.144C46.6642 12.144 46.2322 12.0747 45.8589 11.936C45.4962 11.7973 45.1549 11.584 44.8349 11.296H44.8029L44.6589 12H43.6509V0.639999H45.0429V5.424C45.3842 5.06133 45.7575 4.79467 46.1629 4.624C46.5789 4.45333 47.0109 4.368 47.4589 4.368C48.4189 4.368 49.1762 4.70933 49.7309 5.392C50.2962 6.07467 50.5789 7.024 50.5789 8.24ZM49.1069 8.256C49.1069 7.424 48.9309 6.76267 48.5789 6.272C48.2269 5.77067 47.7309 5.52 47.0909 5.52C46.6855 5.52 46.3175 5.61067 45.9869 5.792C45.6562 5.97333 45.3415 6.22933 45.0429 6.56V10.208C45.2669 10.464 45.5175 10.672 45.7949 10.832C46.0829 10.9813 46.4135 11.056 46.7869 11.056C47.0855 11.056 47.3735 11.0027 47.6509 10.896C47.9389 10.7893 48.1895 10.624 48.4029 10.4C48.6162 10.1653 48.7869 9.872 48.9149 9.52C49.0429 9.168 49.1069 8.74667 49.1069 8.256Z" fill="#4D4D4D"/>
</g>
<defs>
<filter id="filter0_d_1_11" x="0.720001" y="0.640015" width="53.8589" height="19.504" filterUnits="userSpaceOnUse" color-interpolation-filters="sRGB">
<feFlood flood-opacity="0" result="BackgroundImageFix"/>
<feColorMatrix in="SourceAlpha" type="matrix" values="0 0 0 0 0 0 0 0 0 0 0 0 0 0 0 0 0 0 127 0" result="hardAlpha"/>
<feOffset dy="4"/>
<feGaussianBlur stdDeviation="2"/>
<feComposite in2="hardAlpha" operator="out"/>
<feColorMatrix type="matrix" values="0 0 0 0 0 0 0 0 0 0 0 0 0 0 0 0 0 0 0.25 0"/>
<feBlend mode="normal" in2="BackgroundImageFix" result="effect1_dropShadow_1_11"/>
<feBlend mode="normal" in="SourceGraphic" in2="effect1_dropShadow_1_11" result="shape"/>
</filter>
</defs>
</svg>
