<svg width="67" height="15" viewBox="0 0 67 15" fill="none" xmlns="http://www.w3.org/2000/svg">
<path d="M1.752 0.919999V11H0.28V0.919999H1.752ZM5.51163 11H4.10363V3.48H5.20763L5.41563 4.52C5.78896 4.14667 6.17829 3.864 6.58363 3.672C6.99963 3.46933 7.47429 3.368 8.00763 3.368C8.77563 3.368 9.37829 3.58667 9.81563 4.024C10.253 4.45067 10.4716 5.048 10.4716 5.816V11H9.06363V6.024C9.06363 5.56533 8.94096 5.20267 8.69563 4.936C8.46096 4.65867 8.09829 4.52 7.60763 4.52C6.86096 4.52 6.16229 4.856 5.51163 5.528V11ZM16.8745 4.888C16.5225 4.71733 16.2025 4.6 15.9145 4.536C15.6265 4.472 15.3385 4.44 15.0505 4.44C14.5385 4.44 14.1598 4.536 13.9145 4.728C13.6692 4.90933 13.5465 5.15467 13.5465 5.464C13.5465 5.688 13.6318 5.88533 13.8025 6.056C13.9732 6.216 14.3305 6.376 14.8745 6.536L15.3545 6.68C16.0692 6.89333 16.6078 7.17067 16.9705 7.512C17.3438 7.84267 17.5305 8.296 17.5305 8.872C17.5305 9.55467 17.2745 10.104 16.7625 10.52C16.2612 10.936 15.5572 11.144 14.6505 11.144C14.1705 11.144 13.7065 11.1013 13.2585 11.016C12.8212 10.9307 12.4425 10.8133 12.1225 10.664L12.4585 9.56C12.7678 9.70933 13.1038 9.832 13.4665 9.928C13.8292 10.0133 14.1972 10.056 14.5705 10.056C15.0505 10.056 15.4292 9.97067 15.7065 9.8C15.9945 9.62933 16.1385 9.34667 16.1385 8.952C16.1385 8.61067 16.0158 8.37067 15.7705 8.232C15.5252 8.08267 15.1732 7.93867 14.7145 7.8L14.2185 7.64C13.5252 7.416 13.0078 7.13867 12.6665 6.808C12.3358 6.46667 12.1705 6.02933 12.1705 5.496C12.1705 5.176 12.2398 4.88267 12.3785 4.616C12.5172 4.34933 12.7038 4.12533 12.9385 3.944C13.1838 3.76267 13.4718 3.624 13.8025 3.528C14.1332 3.42133 14.4958 3.368 14.8905 3.368C15.2638 3.368 15.6478 3.40533 16.0425 3.48C16.4478 3.544 16.8318 3.656 17.1945 3.816L16.8745 4.888ZM23.1181 4.536H20.9101V8.904C20.9101 9.27733 21.0008 9.528 21.1821 9.656C21.3741 9.784 21.6195 9.848 21.9181 9.848C22.1315 9.848 22.3661 9.82667 22.6221 9.784C22.8781 9.73067 23.1021 9.672 23.2941 9.608L23.5181 10.68C23.3048 10.7653 23.0328 10.84 22.7021 10.904C22.3715 10.968 22.0248 11 21.6621 11C20.9155 11 20.3715 10.84 20.0301 10.52C19.6888 10.1893 19.5181 9.71467 19.5181 9.096V4.536H18.3981V3.48H19.5181V1.08H20.9101V3.48H23.1181V4.536ZM25.0743 4.152C25.3303 4.024 25.5703 3.912 25.7943 3.816C26.0183 3.70933 26.2423 3.624 26.4663 3.56C26.6903 3.496 26.9196 3.448 27.1543 3.416C27.3889 3.384 27.6449 3.368 27.9223 3.368C28.3383 3.368 28.7169 3.416 29.0583 3.512C29.4103 3.59733 29.7089 3.74667 29.9543 3.96C30.2103 4.17333 30.4076 4.456 30.5463 4.808C30.6849 5.14933 30.7543 5.58133 30.7543 6.104V11H29.5863L29.4103 10.168H29.3783C29.0476 10.52 28.6849 10.7707 28.2903 10.92C27.8956 11.0693 27.4583 11.144 26.9783 11.144C26.6156 11.144 26.2796 11.096 25.9703 11C25.6716 10.8933 25.4103 10.7493 25.1863 10.568C24.9623 10.376 24.7863 10.1467 24.6583 9.88C24.5409 9.61333 24.4823 9.31467 24.4823 8.984C24.4823 8.19467 24.7916 7.59733 25.4103 7.192C26.0396 6.776 26.8663 6.568 27.8903 6.568H29.3303V5.928C29.3303 5.384 29.1916 5.016 28.9143 4.824C28.6369 4.62133 28.2636 4.52 27.7943 4.52C27.5169 4.52 27.1969 4.568 26.8343 4.664C26.4823 4.74933 26.0769 4.92 25.6183 5.176L25.0743 4.152ZM29.3463 7.528L28.1623 7.56C27.3623 7.58133 26.7916 7.72533 26.4503 7.992C26.1196 8.248 25.9543 8.56267 25.9543 8.936C25.9543 9.16 25.9916 9.352 26.0663 9.512C26.1409 9.66133 26.2369 9.77867 26.3543 9.864C26.4823 9.94933 26.6263 10.0133 26.7863 10.056C26.9569 10.088 27.1329 10.104 27.3143 10.104C27.6663 10.104 28.0236 10.024 28.3863 9.864C28.7489 9.69333 29.0689 9.42667 29.3463 9.064V7.528ZM32.7104 5.976C32.7104 5.56 32.785 5.192 32.9344 4.872C33.0837 4.54133 33.2917 4.264 33.5584 4.04C33.8357 3.816 34.161 3.65067 34.5344 3.544C34.9077 3.42667 35.313 3.368 35.7504 3.368C35.9104 3.368 36.065 3.37867 36.2144 3.4C36.3637 3.42133 36.513 3.448 36.6624 3.48H39.9104V4.52H39.4144L38.1344 4.344C38.337 4.55733 38.4917 4.80267 38.5984 5.08C38.7157 5.35733 38.7744 5.65067 38.7744 5.96C38.7744 6.376 38.6997 6.74933 38.5504 7.08C38.401 7.4 38.193 7.672 37.9264 7.896C37.6597 8.12 37.3397 8.29067 36.9664 8.408C36.593 8.51467 36.1877 8.568 35.7504 8.568C35.4197 8.568 35.1317 8.54667 34.8864 8.504C34.641 8.58933 34.4704 8.70133 34.3744 8.84C34.2784 8.968 34.2304 9.10667 34.2304 9.256C34.2304 9.50133 34.3104 9.66667 34.4704 9.752C34.641 9.83733 34.865 9.88 35.1424 9.88H37.1264C37.9584 9.88 38.593 10.072 39.0304 10.456C39.4784 10.8293 39.7024 11.3413 39.7024 11.992C39.7024 12.408 39.6117 12.7813 39.4304 13.112C39.249 13.4427 38.9877 13.7253 38.6464 13.96C38.3157 14.1947 37.9104 14.3707 37.4304 14.488C36.9504 14.616 36.4117 14.68 35.8144 14.68C34.7264 14.68 33.857 14.4827 33.2064 14.088C32.5664 13.704 32.2464 13.1333 32.2464 12.376C32.2464 11.9813 32.369 11.6507 32.6144 11.384C32.8704 11.1173 33.201 10.9147 33.6064 10.776C33.393 10.6267 33.233 10.472 33.1264 10.312C33.0197 10.1413 32.9664 9.91733 32.9664 9.64C32.9664 9.30933 33.0624 9.02667 33.2544 8.792C33.457 8.55733 33.729 8.37067 34.0704 8.232C33.6437 8.04 33.3077 7.76267 33.0624 7.4C32.8277 7.02667 32.7104 6.552 32.7104 5.976ZM34.4224 11C33.8784 11.2453 33.6064 11.6293 33.6064 12.152C33.6064 13.0907 34.3637 13.56 35.8784 13.56C36.3264 13.56 36.705 13.5173 37.0144 13.432C37.3237 13.3467 37.5744 13.2347 37.7664 13.096C37.9584 12.9573 38.097 12.8027 38.1824 12.632C38.2784 12.4613 38.3264 12.2853 38.3264 12.104C38.3264 11.656 38.1717 11.3573 37.8624 11.208C37.5637 11.0693 37.185 11 36.7264 11H34.4224ZM37.3504 6.008C37.3504 5.44267 37.201 5.02667 36.9024 4.76C36.6144 4.49333 36.2304 4.36 35.7504 4.36C35.2704 4.36 34.881 4.49333 34.5824 4.76C34.2944 5.02667 34.1504 5.42133 34.1504 5.944C34.1504 6.49867 34.2944 6.90933 34.5824 7.176C34.881 7.432 35.2704 7.56 35.7504 7.56C36.2304 7.56 36.6144 7.432 36.9024 7.176C37.201 6.92 37.3504 6.53067 37.3504 6.008ZM41.4466 11V3.48H42.5026L42.7426 4.984C42.924 4.504 43.2226 4.11467 43.6386 3.816C44.0546 3.51733 44.5346 3.368 45.0786 3.368C45.356 3.368 45.5853 3.38933 45.7666 3.432C45.948 3.47467 46.1133 3.528 46.2626 3.592L45.9906 4.824C45.8626 4.76 45.7186 4.70667 45.5586 4.664C45.4093 4.62133 45.228 4.6 45.0146 4.6C44.7053 4.6 44.4173 4.65333 44.1506 4.76C43.8946 4.86667 43.6653 5.02667 43.4626 5.24C43.2706 5.45333 43.116 5.72 42.9986 6.04C42.892 6.34933 42.8386 6.70667 42.8386 7.112V11H41.4466ZM47.2774 4.152C47.5334 4.024 47.7734 3.912 47.9974 3.816C48.2214 3.70933 48.4454 3.624 48.6694 3.56C48.8934 3.496 49.1227 3.448 49.3574 3.416C49.592 3.384 49.848 3.368 50.1254 3.368C50.5414 3.368 50.92 3.416 51.2614 3.512C51.6134 3.59733 51.912 3.74667 52.1574 3.96C52.4134 4.17333 52.6107 4.456 52.7494 4.808C52.888 5.14933 52.9574 5.58133 52.9574 6.104V11H51.7894L51.6134 10.168H51.5814C51.2507 10.52 50.888 10.7707 50.4934 10.92C50.0987 11.0693 49.6614 11.144 49.1814 11.144C48.8187 11.144 48.4827 11.096 48.1734 11C47.8747 10.8933 47.6134 10.7493 47.3894 10.568C47.1654 10.376 46.9894 10.1467 46.8614 9.88C46.744 9.61333 46.6854 9.31467 46.6854 8.984C46.6854 8.19467 46.9947 7.59733 47.6134 7.192C48.2427 6.776 49.0694 6.568 50.0934 6.568H51.5334V5.928C51.5334 5.384 51.3947 5.016 51.1174 4.824C50.84 4.62133 50.4667 4.52 49.9974 4.52C49.72 4.52 49.4 4.568 49.0374 4.664C48.6854 4.74933 48.28 4.92 47.8214 5.176L47.2774 4.152ZM51.5494 7.528L50.3654 7.56C49.5654 7.58133 48.9947 7.72533 48.6534 7.992C48.3227 8.248 48.1574 8.56267 48.1574 8.936C48.1574 9.16 48.1947 9.352 48.2694 9.512C48.344 9.66133 48.44 9.77867 48.5574 9.864C48.6854 9.94933 48.8294 10.0133 48.9894 10.056C49.16 10.088 49.336 10.104 49.5174 10.104C49.8694 10.104 50.2267 10.024 50.5894 9.864C50.952 9.69333 51.272 9.42667 51.5494 9.064V7.528ZM56.4335 11H55.0255V3.48H56.1135L56.3215 4.52C56.6735 4.168 57.0522 3.89067 57.4575 3.688C57.8628 3.47467 58.3482 3.368 58.9135 3.368C59.4468 3.368 59.8842 3.48 60.2255 3.704C60.5668 3.91733 60.8228 4.216 60.9935 4.6C61.3668 4.20533 61.7775 3.90133 62.2255 3.688C62.6735 3.47467 63.1695 3.368 63.7135 3.368C64.4815 3.368 65.0575 3.58667 65.4415 4.024C65.8362 4.45067 66.0335 5.048 66.0335 5.816V11H64.6255V6.072C64.6255 5.57067 64.5188 5.18667 64.3055 4.92C64.0922 4.65333 63.7402 4.52 63.2495 4.52C62.5242 4.52 61.8468 4.84533 61.2175 5.496C61.2282 5.54933 61.2335 5.60267 61.2335 5.656C61.2335 5.70933 61.2335 5.76267 61.2335 5.816V11H59.8255V6.072C59.8255 5.57067 59.7188 5.18667 59.5055 4.92C59.2922 4.65333 58.9402 4.52 58.4495 4.52C57.7242 4.52 57.0522 4.86133 56.4335 5.544V11Z" fill="#4D4D4D"/>
</svg>
