<svg width="55" height="13" viewBox="0 0 55 13" fill="none" xmlns="http://www.w3.org/2000/svg">
<path d="M0.28 1.92H1.752V10.752H6.056V12H0.28V1.92ZM7.60888 12V4.48H9.01688V12H7.60888ZM8.31288 2.544C8.06754 2.544 7.85421 2.464 7.67288 2.304C7.50221 2.13333 7.41688 1.92533 7.41688 1.68C7.41688 1.43467 7.50221 1.22667 7.67288 1.056C7.85421 0.885333 8.06754 0.799999 8.31288 0.799999C8.54754 0.799999 8.75554 0.885333 8.93688 1.056C9.11821 1.22667 9.20888 1.43467 9.20888 1.68C9.20888 1.92533 9.11821 2.13333 8.93688 2.304C8.75554 2.464 8.54754 2.544 8.31288 2.544ZM12.7304 12H11.3224V4.48H12.4264L12.6344 5.52C13.0077 5.14667 13.397 4.864 13.8024 4.672C14.2184 4.46933 14.693 4.368 15.2264 4.368C15.9944 4.368 16.597 4.58667 17.0344 5.024C17.4717 5.45067 17.6904 6.048 17.6904 6.816V12H16.2824V7.024C16.2824 6.56533 16.1597 6.20267 15.9144 5.936C15.6797 5.65867 15.317 5.52 14.8264 5.52C14.0797 5.52 13.381 5.856 12.7304 6.528V12ZM21.2773 9.248V12H19.8853V0.639999H21.2773V7.712L24.3013 4.48H26.0453L22.9573 7.648L26.1893 12H24.5253L22.0293 8.496L21.2773 9.248ZM32.0956 0.639999H33.5036V12H32.3196L32.1436 11.168H32.0956C31.765 11.5093 31.429 11.76 31.0876 11.92C30.757 12.0693 30.3356 12.144 29.8236 12.144C29.4183 12.144 29.0236 12.064 28.6396 11.904C28.2663 11.744 27.9303 11.504 27.6316 11.184C27.333 10.864 27.093 10.464 26.9116 9.984C26.7303 9.49333 26.6396 8.91733 26.6396 8.256C26.6396 7.66933 26.7143 7.136 26.8636 6.656C27.0236 6.176 27.2476 5.76533 27.5356 5.424C27.8236 5.08267 28.1756 4.82133 28.5916 4.64C29.0076 4.45867 29.4823 4.368 30.0156 4.368C30.4103 4.368 30.7836 4.432 31.1356 4.56C31.4983 4.67733 31.8183 4.85867 32.0956 5.104V0.639999ZM32.0956 6.288C31.5943 5.72267 31.0023 5.44 30.3196 5.44C30.0316 5.44 29.749 5.49333 29.4716 5.6C29.205 5.696 28.965 5.856 28.7516 6.08C28.549 6.304 28.3836 6.592 28.2556 6.944C28.1276 7.296 28.0636 7.71733 28.0636 8.208C28.0636 8.72 28.1223 9.15733 28.2396 9.52C28.357 9.872 28.5116 10.1653 28.7036 10.4C28.9063 10.624 29.1303 10.7893 29.3756 10.896C29.6316 11.0027 29.8876 11.056 30.1436 11.056C30.9436 11.056 31.5943 10.7093 32.0956 10.016V6.288ZM42.0818 8.4H36.6898V8.464C36.6898 9.296 36.9138 9.936 37.3618 10.384C37.8204 10.832 38.4391 11.056 39.2178 11.056C39.6231 11.056 39.9804 11.024 40.2898 10.96C40.6098 10.896 40.9564 10.7893 41.3298 10.64L41.6178 11.68C41.3084 11.8187 40.9404 11.9307 40.5138 12.016C40.0978 12.1013 39.6498 12.144 39.1698 12.144C38.6258 12.144 38.1138 12.0693 37.6338 11.92C37.1644 11.7707 36.7484 11.5413 36.3858 11.232C36.0231 10.912 35.7351 10.5067 35.5218 10.016C35.3191 9.52533 35.2178 8.93867 35.2178 8.256C35.2178 7.66933 35.3031 7.136 35.4738 6.656C35.6551 6.176 35.9058 5.77067 36.2258 5.44C36.5458 5.09867 36.9298 4.83733 37.3778 4.656C37.8364 4.464 38.3484 4.368 38.9138 4.368C39.3938 4.368 39.8258 4.448 40.2098 4.608C40.6044 4.768 40.9404 4.992 41.2178 5.28C41.4951 5.568 41.7084 5.91467 41.8578 6.32C42.0071 6.72533 42.0818 7.17333 42.0818 7.664V8.4ZM40.6258 7.392C40.6258 7.11467 40.5884 6.85867 40.5138 6.624C40.4498 6.37867 40.3431 6.16533 40.1938 5.984C40.0551 5.80267 39.8738 5.65867 39.6498 5.552C39.4258 5.44533 39.1538 5.392 38.8338 5.392C38.2471 5.392 37.7671 5.57867 37.3938 5.952C37.0311 6.32533 36.8071 6.816 36.7218 7.424L40.6258 7.392ZM43.9683 12V4.48H45.3763V12H43.9683ZM44.6723 2.544C44.4269 2.544 44.2136 2.464 44.0323 2.304C43.8616 2.13333 43.7763 1.92533 43.7763 1.68C43.7763 1.43467 43.8616 1.22667 44.0323 1.056C44.2136 0.885333 44.4269 0.799999 44.6723 0.799999C44.9069 0.799999 45.1149 0.885333 45.2963 1.056C45.4776 1.22667 45.5683 1.43467 45.5683 1.68C45.5683 1.92533 45.4776 2.13333 45.2963 2.304C45.1149 2.464 44.9069 2.544 44.6723 2.544ZM49.0898 12H47.6818V4.48H48.7858L48.9938 5.52C49.3671 5.14667 49.7564 4.864 50.1618 4.672C50.5778 4.46933 51.0524 4.368 51.5858 4.368C52.3538 4.368 52.9564 4.58667 53.3938 5.024C53.8311 5.45067 54.0498 6.048 54.0498 6.816V12H52.6418V7.024C52.6418 6.56533 52.5191 6.20267 52.2738 5.936C52.0391 5.65867 51.6764 5.52 51.1858 5.52C50.4391 5.52 49.7404 5.856 49.0898 6.528V12Z" fill="#4D4D4D"/>
</svg>
