<svg width="220" height="166" viewBox="0 0 220 166" fill="none" xmlns="http://www.w3.org/2000/svg">
<rect width="220" height="165" transform="translate(0 0.5)" fill="white"/>
<g clip-path="url(#clip0_12380_22698)">
<path d="M89.6312 36.4729H88.8687V15.5878C88.8687 14.0004 88.5561 12.4285 87.9485 10.962C87.341 9.49543 86.4506 8.16289 85.328 7.04043C84.2055 5.91798 82.8728 5.0276 81.4062 4.42013C79.9395 3.81266 78.3675 3.5 76.78 3.5H32.5282C29.3221 3.49999 26.2473 4.77352 23.9802 7.04041C21.7131 9.3073 20.4395 12.3819 20.4395 15.5877V130.165C20.4395 131.753 20.7521 133.325 21.3597 134.791C21.9672 136.258 22.8576 137.59 23.9802 138.713C25.1027 139.835 26.4354 140.726 27.902 141.333C29.3687 141.941 30.9407 142.253 32.5282 142.253H76.7799C79.9861 142.253 83.0609 140.98 85.328 138.713C87.5951 136.446 88.8687 133.371 88.8687 130.165V51.3394H89.6312V36.4729Z" fill="#3F3D56"/>
<path d="M77.268 6.64502H71.4917C71.7573 7.29622 71.8587 8.00276 71.7869 8.70238C71.7152 9.402 71.4724 10.0732 71.0801 10.657C70.6878 11.2407 70.1579 11.719 69.5372 12.0497C68.9165 12.3804 68.2239 12.5534 67.5206 12.5535H42.1693C41.466 12.5534 40.7734 12.3804 40.1527 12.0497C39.532 11.719 39.0021 11.2407 38.6098 10.657C38.2175 10.0732 37.9747 9.402 37.903 8.70238C37.8312 8.00276 37.9326 7.29622 38.1982 6.64502H32.8032C31.6176 6.64502 30.4437 6.87851 29.3484 7.33216C28.2531 7.78581 27.2579 8.45073 26.4196 9.28897C25.5813 10.1272 24.9163 11.1223 24.4626 12.2175C24.0089 13.3127 23.7754 14.4866 23.7754 15.672V130.082C23.7754 131.267 24.0089 132.441 24.4626 133.536C24.9163 134.631 25.5813 135.626 26.4196 136.465C27.2579 137.303 28.2531 137.968 29.3484 138.421C30.4437 138.875 31.6176 139.109 32.8031 139.109H77.268C78.4535 139.109 79.6275 138.875 80.7228 138.421C81.8181 137.968 82.8133 137.303 83.6516 136.465C84.4899 135.626 85.1549 134.631 85.6086 133.536C86.0622 132.441 86.2958 131.267 86.2958 130.082V15.672C86.2958 14.4866 86.0622 13.3127 85.6086 12.2175C85.1549 11.1223 84.4899 10.1272 83.6516 9.28897C82.8133 8.45073 81.8181 7.78581 80.7228 7.33216C79.6275 6.87851 78.4535 6.64502 77.268 6.64502Z" fill="white"/>
<path d="M103.815 142.273H6.25606C6.18815 142.273 6.12302 142.246 6.075 142.198C6.02698 142.15 6 142.085 6 142.017C6 141.949 6.02698 141.884 6.075 141.836C6.12302 141.788 6.18815 141.761 6.25606 141.761H103.815C103.883 141.761 103.948 141.788 103.996 141.836C104.044 141.884 104.071 141.949 104.071 142.017C104.071 142.085 104.044 142.15 103.996 142.198C103.948 142.246 103.883 142.273 103.815 142.273Z" fill="#CBCBCB"/>
<path d="M183.768 144.398C184.031 143.973 184.34 143.578 184.691 143.222C184.835 143.072 184.988 142.93 185.145 142.793C186.101 141.942 187.267 141.361 188.522 141.11C189.777 140.859 191.076 140.946 192.286 141.364C193.496 141.781 194.573 142.513 195.406 143.485C196.239 144.456 196.799 145.632 197.027 146.891C198.083 142.986 195.334 139.14 192.57 136.185C189.805 133.231 186.644 129.991 186.66 125.944C186.667 123.692 187.769 121.683 189.433 120.193C189.484 120.148 189.535 120.103 189.588 120.06C191.598 118.336 194.185 117.435 196.831 117.535C201.747 117.799 206.04 121.103 209.021 125.021C213.819 131.327 215.922 140.178 212.562 147.356C209.608 153.669 203.306 157.418 196.875 160.432C195.977 160.852 195.081 161.261 194.186 161.656C194.18 161.658 194.174 161.662 194.168 161.664C194.125 161.682 194.082 161.701 194.041 161.721C193.857 161.802 193.672 161.884 193.489 161.964L193.574 162.02L193.838 162.191C193.747 162.135 193.656 162.081 193.564 162.026C193.537 162.009 193.508 161.993 193.481 161.976C190.322 160.081 187.12 158.076 184.937 155.118C182.674 152.046 181.764 147.646 183.768 144.398Z" fill="#F1F1F1"/>
<path d="M204.842 137.264C205.542 138.855 206.006 140.539 206.219 142.264C206.387 143.802 206.324 145.357 206.032 146.876C205.405 149.998 204.037 152.924 202.043 155.408C200.539 157.294 198.803 158.981 196.875 160.432C195.977 160.852 195.081 161.261 194.187 161.656C194.181 161.658 194.174 161.662 194.168 161.664C194.125 161.682 194.082 161.701 194.042 161.721C193.857 161.802 193.673 161.884 193.49 161.964L193.574 162.02L193.839 162.191C193.747 162.135 193.656 162.081 193.565 162.026C193.537 162.009 193.509 161.993 193.481 161.976C194.177 159.545 194.279 156.983 193.779 154.504C193.28 152.025 192.194 149.702 190.612 147.729C189.021 145.781 186.992 144.237 184.691 143.222C184.836 143.072 184.988 142.93 185.146 142.793C186.032 143.2 186.881 143.684 187.681 144.241C190.546 146.221 192.697 149.07 193.816 152.367C194.815 155.359 194.94 158.573 194.176 161.633C194.335 161.529 194.494 161.423 194.648 161.317C197.591 159.333 200.303 156.95 202.346 154.028C204.108 151.558 205.235 148.693 205.629 145.685C206.02 142.399 205.198 139.168 203.731 136.236C202.111 133.099 200.069 130.198 197.663 127.615C195.247 124.96 192.514 122.61 189.527 120.619C189.46 120.574 189.412 120.504 189.395 120.425C189.377 120.346 189.391 120.263 189.433 120.193C189.465 120.13 189.521 120.082 189.588 120.06C189.622 120.051 189.658 120.05 189.693 120.057C189.727 120.064 189.76 120.079 189.788 120.1C190.157 120.346 190.522 120.594 190.883 120.85C193.892 122.98 196.624 125.475 199.017 128.279C201.33 130.982 203.434 133.984 204.842 137.264Z" fill="white"/>
<path d="M140.442 13.5396C142.978 13.5396 145.034 11.4838 145.034 8.94777C145.034 6.41178 142.978 4.35596 140.442 4.35596C137.906 4.35596 135.85 6.41178 135.85 8.94777C135.85 11.4838 137.906 13.5396 140.442 13.5396Z" fill="#F1F1F1"/>
<path d="M197.544 74.9887C199.09 74.9887 200.344 73.7353 200.344 72.1892C200.344 70.643 199.09 69.3896 197.544 69.3896C195.998 69.3896 194.744 70.643 194.744 72.1892C194.744 73.7353 195.998 74.9887 197.544 74.9887Z" fill="#F1F1F1"/>
<path d="M115.604 82.6699C117.151 82.6699 118.404 81.4165 118.404 79.8703C118.404 78.3242 117.151 77.0708 115.604 77.0708C114.058 77.0708 112.805 78.3242 112.805 79.8703C112.805 81.4165 114.058 82.6699 115.604 82.6699Z" fill="#F1F1F1"/>
<path d="M117.186 162.5H214.745C214.812 162.5 214.878 162.473 214.926 162.425C214.974 162.377 215.001 162.312 215.001 162.244C215.001 162.176 214.974 162.111 214.926 162.063C214.878 162.015 214.812 161.988 214.745 161.988H117.186C117.118 161.988 117.053 162.015 117.005 162.063C116.957 162.111 116.93 162.176 116.93 162.244C116.93 162.312 116.957 162.377 117.005 162.425C117.053 162.473 117.118 162.5 117.186 162.5Z" fill="#CBCBCB"/>
<path d="M203.977 28.2425C204.105 27.3331 203.895 26.4083 203.387 25.6433C202.878 24.8783 202.107 24.3264 201.219 24.092C200.331 23.8576 199.388 23.9571 198.568 24.3716C197.749 24.7862 197.11 25.4869 196.772 26.3411L188.855 35.4162L191.178 41.9034L199.14 31.2995C199.66 31.4659 200.209 31.5164 200.75 31.4474C201.292 31.3784 201.811 31.1916 202.272 30.9001C202.733 30.6087 203.125 30.2196 203.419 29.7605C203.714 29.3013 203.904 28.7831 203.977 28.2425Z" fill="#FFB7B7"/>
<path d="M171.162 63.5536L197.441 35.5099L193.896 29.875L160.936 57.7484L171.162 63.5536Z" fill="#058B94"/>
<path d="M165.296 46.5144C170.387 46.5144 174.514 42.3876 174.514 37.297C174.514 32.2064 170.387 28.0796 165.296 28.0796C160.205 28.0796 156.078 32.2064 156.078 37.297C156.078 42.3876 160.205 46.5144 165.296 46.5144Z" fill="#2F2E41"/>
<path d="M166.039 32.0902C168.023 30.0789 170.423 28.5268 173.071 27.5432C174.771 26.9135 176.621 26.5244 178.399 26.882C180.176 27.2396 181.856 28.469 182.352 30.2125C182.758 31.6382 182.339 33.1733 181.71 34.5154C181.081 35.8575 180.241 37.102 179.732 38.4942C179.213 39.9147 179.057 41.4424 179.278 42.9385C179.499 44.4347 180.09 45.8519 180.998 47.0616C181.906 48.2713 183.101 49.2352 184.476 49.8656C185.851 50.4961 187.361 50.7733 188.87 50.672C187.124 50.9061 185.515 51.7266 183.808 52.1634C182.101 52.6001 180.087 52.5705 178.818 51.3478C177.476 50.0542 177.449 47.9509 177.514 46.0881C177.611 43.3191 177.707 40.55 177.804 37.781C177.853 36.3688 177.895 34.9114 177.386 33.5933C176.876 32.2753 175.666 31.1211 174.253 31.1331C173.182 31.1422 172.234 31.7909 171.375 32.4307C170.516 33.0705 169.607 33.7531 168.54 33.8482C167.473 33.9434 166.255 33.154 166.335 32.0861L166.039 32.0902Z" fill="#2F2E41"/>
<path d="M130.285 99.1875C129.4 99.4334 128.456 99.346 127.631 98.9421C126.806 98.5382 126.158 97.8458 125.81 96.996C125.461 96.1463 125.437 95.1983 125.741 94.3316C126.045 93.4649 126.656 92.7398 127.459 92.2937L135.422 83.2598L142.158 84.7149L132.684 93.9932C132.917 94.4865 133.039 95.0248 133.041 95.5703C133.044 96.1158 132.926 96.6552 132.698 97.1504C132.469 97.6456 132.134 98.0847 131.718 98.4367C131.301 98.7886 130.812 99.0449 130.285 99.1875H130.285Z" fill="#FFB7B7"/>
<path d="M156.485 66.8453L136.636 91.7579L130.586 88.9804L153.916 52.6626L156.485 66.8453Z" fill="#058B94"/>
<path d="M140.648 142.071L135.918 141.997L136.487 158.118H140.648L140.648 142.071Z" fill="#FFB7B7"/>
<path d="M141.709 156.76L133.515 156.76H133.515C132.13 156.76 130.802 157.31 129.823 158.289C128.843 159.268 128.293 160.596 128.293 161.981V162.151L141.709 162.151L141.709 156.76Z" fill="#2F2E41"/>
<path d="M171.968 137.795L166.801 141.112L177.137 153.547L180.639 151.299L171.968 137.795Z" fill="#FFB7B7"/>
<path d="M180.798 149.583L173.903 154.009L173.902 154.009C172.737 154.758 171.917 155.938 171.622 157.291C171.327 158.644 171.581 160.059 172.33 161.224L172.421 161.367L183.711 154.119L180.798 149.583Z" fill="#2F2E41"/>
<path d="M173.811 88.5665C173.811 88.5665 162.329 50.4354 158.639 49.9201C154.949 49.4048 149.004 59.7041 149.004 59.7041C141.296 69.5381 133.348 101.393 133.348 101.393C133.348 101.393 146.598 102.222 156.284 107.374C165.97 112.527 177.4 107.114 177.4 107.114L173.811 88.5665Z" fill="#023C40"/>
<path opacity="0.1" d="M173.811 88.5663C173.811 88.5663 162.329 50.4352 158.639 49.9199C154.949 49.4046 150.514 59.8084 150.514 59.8084C146.673 75.6828 133.348 101.392 133.348 101.392C133.348 101.392 146.598 102.221 156.284 107.374C165.97 112.527 177.4 107.113 177.4 107.113L173.811 88.5663Z" fill="#058B94"/>
<path d="M164.389 77.1577V96.3184L166.644 124.074L177.911 145.069L172.534 148.91L157.17 128.939L151.094 109.109L141.551 153.006L134.381 152.494L139.36 91.6311L148.809 74.4995L164.389 77.1577Z" fill="#035D63"/>
<path d="M152.814 58.6252C149.229 62.2098 152.558 66.0504 152.558 66.0504L148.461 75.2677L164.593 79.6204L170.23 54.4318L166.389 50.3351C158.707 50.0791 158.703 49.9199 158.703 49.9199C157.357 51.2369 152.814 58.6252 152.814 58.6252Z" fill="#06B9C6"/>
<path d="M170.88 51.8219C170.147 51.2811 169.315 50.8911 168.43 50.6744C167.546 50.4576 166.627 50.4185 165.727 50.5594C164.828 50.7002 163.965 51.0181 163.189 51.4947C162.413 51.9713 161.739 52.5971 161.207 53.3359C157.151 58.9821 153.402 68.0994 158.568 79.4702C166.864 97.7282 174.084 107.075 177.019 107.074C177.147 107.075 177.274 107.055 177.396 107.015C179.202 106.402 181.814 103.345 182.287 100.651C182.457 99.6873 182.416 98.3443 181.263 97.4222C177.951 94.7731 172.005 86.5248 170.15 75.6681C169.125 69.6692 171.113 64.2048 172.961 60.6771C173.741 59.2175 173.97 57.5254 173.604 55.911C173.238 54.2967 172.303 52.8682 170.969 51.8875L170.88 51.8219Z" fill="#058B94"/>
<path d="M165.772 45.6092C169.061 43.8118 170.269 39.6892 168.472 36.4011C166.674 33.113 162.551 31.9046 159.263 33.702C155.974 35.4994 154.766 39.6221 156.563 42.9101C158.361 46.1982 162.484 47.4066 165.772 45.6092Z" fill="#FFB7B7"/>
<path d="M152.973 39.1424H162.771L162.871 37.7358L163.374 39.1424H164.883L165.082 36.3545L166.077 39.1424H168.997V39.0043C168.994 37.0634 168.222 35.2026 166.85 33.8302C165.477 32.4578 163.616 31.6858 161.675 31.6836H160.294C158.353 31.6858 156.492 32.4578 155.119 33.8302C153.747 35.2026 152.975 37.0634 152.973 39.0043V39.1424Z" fill="#2F2E41"/>
<path d="M167.517 44.1985L171.699 42.8418V32.6885H163.801L163.996 32.8837C166.717 35.6005 169.743 45.2394 167.517 44.1985Z" fill="#2F2E41"/>
<path d="M54.6654 94.1667C66.4474 94.1667 75.9987 84.6154 75.9987 72.8333C75.9987 61.0513 66.4474 51.5 54.6654 51.5C42.8833 51.5 33.332 61.0513 33.332 72.8333C33.332 84.6154 42.8833 94.1667 54.6654 94.1667Z" fill="#058B94"/>
<path d="M51.207 80.1665L45.668 73.322L48.8891 70.9143L51.5119 74.155L60.3718 65.1665L63.3346 67.8642L51.207 80.1665Z" fill="white"/>
</g>
<defs>
<clipPath id="clip0_12380_22698">
<rect width="209" height="159" fill="white" transform="translate(6 3.5)"/>
</clipPath>
</defs>
</svg>
