<svg width="220" height="166" viewBox="0 0 220 166" fill="none" xmlns="http://www.w3.org/2000/svg">
<g clip-path="url(#clip0_12380_22732)">
<rect width="220" height="165" transform="translate(0 0.5)" fill="white"/>
<g clip-path="url(#clip1_12380_22732)">
<path d="M72.5407 56.76L37.0603 49.0333L36.5992 48.9332C36.3644 48.8817 36.12 48.8981 35.894 48.9807C35.6681 49.0632 35.4698 49.2084 35.322 49.3997C35.1741 49.5909 35.0827 49.8204 35.0584 50.0617C35.034 50.303 35.0775 50.5464 35.1841 50.7638L49.2712 79.6441C49.3624 79.8297 49.4964 79.9904 49.6619 80.1128C49.8274 80.2352 50.0197 80.3156 50.2224 80.3473C50.4258 80.3792 50.6338 80.3607 50.8285 80.2933C51.0232 80.2259 51.1988 80.1117 51.3399 79.9604L61.1245 69.5451C61.1941 69.4691 61.2786 69.4085 61.3725 69.3671C61.4664 69.3257 61.5678 69.3044 61.6703 69.3044C61.8097 69.3025 61.9469 69.3387 62.0674 69.4095C62.1878 69.4802 62.287 69.5826 62.3542 69.7058L64.3583 73.4482C64.4863 73.6977 64.6932 73.8968 64.9462 74.0139C65.1993 74.1309 65.4838 74.1592 65.7545 74.0941L65.7645 74.0919C66.0386 74.0333 66.2851 73.8833 66.4646 73.6662C66.644 73.449 66.7459 73.1773 66.7539 72.8946L67.1554 64.2559C67.1602 64.1481 67.1869 64.0425 67.2338 63.9455C67.2841 63.8496 67.3524 63.7644 67.4349 63.6948L73.0797 59.0169C73.2653 58.8632 73.4042 58.6598 73.4804 58.43C73.5567 58.2002 73.5674 57.9534 73.5111 57.7178C73.4548 57.4823 73.334 57.2675 73.1623 57.098C72.9907 56.9286 72.7752 56.8115 72.5407 56.76ZM72.7574 58.6193L67.1126 63.2971C67.039 63.357 66.9724 63.4249 66.9139 63.4998L36.9962 49.8023C36.9698 49.7899 36.9423 49.7801 36.914 49.7732C36.7986 49.7431 36.6765 49.7548 36.5687 49.806C36.4609 49.8573 36.3742 49.945 36.3237 50.054C36.2731 50.1629 36.2619 50.2863 36.2919 50.4027C36.3219 50.5191 36.3913 50.6213 36.4881 50.6915L61.0871 68.9334C60.9623 68.9989 60.8495 69.0857 60.7539 69.1899L50.9694 79.6052C50.8845 79.6954 50.7793 79.7635 50.6627 79.8039C50.5461 79.8442 50.4216 79.8556 50.2998 79.837C50.1779 79.8183 50.0623 79.7703 49.9628 79.6969C49.8633 79.6235 49.7827 79.527 49.7281 79.4154L35.641 50.5351C35.578 50.4046 35.5526 50.2589 35.5676 50.1146C35.5827 49.9702 35.6376 49.833 35.7262 49.7186C35.8147 49.6042 35.9332 49.5173 36.0684 49.4676C36.2035 49.4179 36.3497 49.4076 36.4903 49.4377L36.9624 49.5407L72.4316 57.2646C72.5725 57.2953 72.7018 57.3655 72.805 57.4671C72.9082 57.5687 72.9809 57.6975 73.0149 57.8389C73.0489 57.9802 73.0428 58.1284 72.9972 58.2664C72.9517 58.4044 72.8686 58.5267 72.7574 58.6193Z" fill="#035D63"/>
<path d="M31.5067 108.017C29.9566 105.095 29.9231 99.7905 34.0918 96.9989C36.1592 95.6144 38.3963 95.6779 40.2649 96.1694C42.8494 96.8494 45.0049 98.3673 46.8052 100.091C48.8817 102.08 50.5563 104.444 52.2018 106.81C53.8264 109.146 55.4823 111.452 57.2509 113.669C64.1765 122.339 72.3868 129.89 81.5979 136.061C83.8719 137.583 86.213 139.021 88.621 140.373C90.8662 141.688 93.2031 142.841 95.6139 143.821C98.8564 145.071 104.481 146.77 108.162 142.725C110.114 140.58 110.636 137.759 110.638 135.409C110.641 132.567 109.938 129.944 109.242 127.383C106.005 115.471 102.703 103.59 99.4328 91.6939C98.6696 88.9174 97.8687 86.1533 97.3244 83.2734C96.8148 80.5771 96.4855 77.7255 96.9328 74.7465C97.3235 72.1445 98.3465 69.1836 100.634 67.0952C102.531 65.3633 104.911 64.7158 107.069 64.6369C112.412 64.4416 117.01 66.9588 120.713 69.6603C125.315 73.0167 129.194 77.1663 133.771 80.5504C137.467 83.2829 141.936 85.7116 147.181 85.8209C149.355 85.909 151.514 85.3852 153.414 84.3086C155.352 83.1256 156.88 81.3701 157.786 79.2844C158.845 76.9142 159.145 74.4451 159.138 72.1534C159.111 69.538 158.687 66.9442 157.878 64.4621C156.213 59.2011 153.543 54.5364 151.392 49.5672C150.337 47.1303 149.328 44.6155 148.863 41.8673C148.469 39.539 148.285 36.7713 149.439 34.1799C151.82 28.8333 157.834 30.5525 160.802 31.941C162.792 32.9106 164.697 34.0462 166.497 35.3359C166.883 35.6032 167.42 34.8279 167.036 34.5619C165.146 33.2001 163.135 32.0156 161.028 31.0233C159.213 30.2089 157.184 29.5175 154.934 29.6555C153.915 29.7138 152.918 29.9865 152.009 30.4559C151.099 30.9253 150.296 31.5808 149.654 32.3799C148.033 34.4349 147.719 37.0163 147.736 39.1466C147.758 41.9638 148.46 44.5374 149.351 46.9766C150.29 49.5456 151.438 51.9914 152.596 54.4255C154.911 59.2895 157.512 64.1992 158.144 69.9654C158.587 73.999 158.273 80.3416 153.422 83.439C151.269 84.814 148.848 85.1023 146.727 84.9504C144.272 84.7376 141.879 84.0794 139.664 83.0078C129.636 78.3712 124.079 68.0972 113.151 64.6737C109.435 63.5096 104.078 62.8928 100.063 66.6363C97.9769 68.5809 96.852 71.2057 96.3093 73.6504C95.6593 76.5784 95.8179 79.4261 96.2211 82.0952C96.6886 84.8651 97.3196 87.6038 98.1107 90.2969C98.9291 93.2821 99.7494 96.2664 100.572 99.2498L105.551 117.364L108.025 126.364C108.78 129.111 109.618 131.868 109.766 134.874C109.887 137.335 109.497 140.746 107.004 142.836C105.024 144.496 102.505 144.529 100.535 144.247C97.9846 143.881 95.6779 142.943 93.5071 141.893C91.0032 140.681 88.594 139.321 86.2421 137.9C81.426 134.987 76.8499 131.695 72.5568 128.053C68.2718 124.423 64.2752 120.464 60.6027 116.212C58.7474 114.063 56.9775 111.84 55.293 109.542C53.5574 107.172 51.9691 104.681 50.1471 102.383C48.4991 100.304 46.6382 98.3908 44.3489 96.9724C42.4374 95.7881 40.1088 94.8287 37.4998 95.0225C35.5378 95.2021 33.7048 96.0948 32.3457 97.5324C30.9888 98.9664 30.091 100.775 29.769 102.722C29.4356 104.705 29.7642 106.74 30.7039 108.51C30.9253 108.927 31.7291 108.437 31.5067 108.017Z" fill="#E6E6E6"/>
<path d="M162.163 160.223H79.4717V160.8H162.163V160.223Z" fill="#3F3D56"/>
<path d="M155.539 133.03C158.522 133.03 160.941 130.588 160.941 127.577C160.941 124.565 158.522 122.123 155.539 122.123C152.555 122.123 150.137 124.565 150.137 127.577C150.137 130.588 152.555 133.03 155.539 133.03Z" fill="#E6E6E6"/>
<path d="M145.682 56.1657C148.666 56.1657 151.084 53.7241 151.084 50.7123C151.084 47.7004 148.666 45.2588 145.682 45.2588C142.699 45.2588 140.28 47.7004 140.28 50.7123C140.28 53.7241 142.699 56.1657 145.682 56.1657Z" fill="#E6E6E6"/>
<path d="M188.033 33.8124L172.981 27.3515C172.316 27.0667 171.563 27.0591 170.889 27.3303C170.215 27.6016 169.674 28.1294 169.385 28.7981L164.725 39.6131C164.437 40.2825 164.426 41.0375 164.692 41.7124C164.959 42.3874 165.482 42.9272 166.146 43.2134L181.198 49.6744C181.864 49.9591 182.616 49.9667 183.29 49.6955C183.964 49.4243 184.505 48.8964 184.794 48.2277L189.454 37.4127C189.742 36.7434 189.754 35.9884 189.487 35.3134C189.221 34.6385 188.698 34.0986 188.033 33.8124ZM187.412 35.2544C187.502 35.2933 187.586 35.3435 187.663 35.4036L177.179 38.3109L172.133 28.7225C172.211 28.7383 172.287 28.7621 172.36 28.7935L187.412 35.2544ZM181.82 48.2324L166.768 41.7714C166.483 41.6488 166.259 41.4174 166.144 41.1281C166.03 40.8389 166.035 40.5153 166.159 40.2284L170.777 29.5106L176.088 39.603C176.171 39.7602 176.304 39.8841 176.467 39.9543C176.63 40.0245 176.812 40.0369 176.983 39.9894L187.957 36.9463L183.361 47.6124C183.237 47.899 183.005 48.1252 182.716 48.2414C182.427 48.3577 182.105 48.3544 181.82 48.2324Z" fill="#E6E6E6"/>
<path d="M116.646 88.3025C124.189 88.3025 130.304 82.1294 130.304 74.5145C130.304 66.8996 124.189 60.7266 116.646 60.7266C109.103 60.7266 102.988 66.8996 102.988 74.5145C102.988 82.1294 109.103 88.3025 116.646 88.3025Z" fill="#FFCCCF"/>
<path d="M114.493 160.393H110.726C110.286 160.392 109.865 160.216 109.554 159.902C109.243 159.588 109.068 159.162 109.067 158.718V127.027C109.068 126.583 109.243 126.157 109.554 125.843C109.865 125.529 110.286 125.353 110.726 125.352H114.493C114.933 125.353 115.354 125.529 115.665 125.843C115.976 126.157 116.151 126.583 116.152 127.027V158.718C116.151 159.162 115.976 159.588 115.665 159.902C115.354 160.216 114.933 160.392 114.493 160.393Z" fill="#035D63"/>
<path d="M121.943 160.393H118.176C117.737 160.392 117.315 160.216 117.004 159.902C116.693 159.588 116.518 159.162 116.518 158.718V127.027C116.518 126.583 116.693 126.157 117.004 125.843C117.315 125.529 117.737 125.353 118.176 125.352H121.943C122.383 125.353 122.804 125.529 123.115 125.843C123.426 126.157 123.601 126.583 123.602 127.027V158.718C123.601 159.162 123.426 159.588 123.115 159.902C122.804 160.216 122.383 160.392 121.943 160.393Z" fill="#035D63"/>
<path d="M137.552 123.713C137.387 123.713 137.222 123.688 137.064 123.639C136.856 123.575 136.662 123.47 136.494 123.33C136.326 123.189 136.187 123.017 136.085 122.823L121.369 94.8286C121.267 94.6343 121.204 94.4217 121.183 94.2028C121.163 93.9839 121.185 93.763 121.249 93.5528C121.312 93.3425 121.417 93.147 121.555 92.9775C121.694 92.8079 121.865 92.6676 122.057 92.5645L125.384 90.782C125.576 90.6788 125.787 90.615 126.004 90.594C126.221 90.5731 126.44 90.5955 126.648 90.6599C126.856 90.7244 127.05 90.8297 127.218 90.9697C127.386 91.1098 127.525 91.2818 127.627 91.4761L142.342 119.47C142.445 119.664 142.508 119.877 142.529 120.096C142.549 120.315 142.527 120.536 142.463 120.746C142.399 120.956 142.295 121.152 142.156 121.321C142.018 121.491 141.847 121.631 141.655 121.734L138.328 123.517C138.089 123.645 137.823 123.713 137.552 123.713Z" fill="#FFCCCF"/>
<path d="M106.918 97.9096C106.719 97.9096 106.521 97.8732 106.335 97.8022H106.335L76.9676 86.6022C76.7639 86.5245 76.5774 86.407 76.4187 86.2564C76.26 86.1059 76.1323 85.9252 76.0428 85.7248C75.9534 85.5243 75.9039 85.3081 75.8973 85.0883C75.8906 84.8686 75.927 84.6497 76.0042 84.4441L77.3327 80.8869C77.4895 80.472 77.8027 80.1367 78.2038 79.9543C78.6049 79.7719 79.0612 79.7574 79.4729 79.9137L108.839 91.1112C109.25 91.269 109.582 91.5845 109.763 91.9888C109.944 92.3931 109.96 92.8533 109.806 93.2688L108.475 96.8265C108.354 97.1451 108.141 97.4192 107.863 97.6126C107.585 97.806 107.255 97.9096 106.918 97.9096Z" fill="#FFCCCF"/>
<path d="M125.046 90.6978H107.933C107.087 90.6978 106.401 91.3898 106.401 92.2435V128.949C106.401 129.803 107.087 130.495 107.933 130.495H125.046C125.892 130.495 126.578 129.803 126.578 128.949V92.2435C126.578 91.3898 125.892 90.6978 125.046 90.6978Z" fill="#058B94"/>
<path d="M126.734 61.0119C127.536 62.7897 128.304 64.9383 127.441 66.84C127.124 67.6083 126.529 68.2261 125.778 68.5681C124.888 68.9266 123.917 68.722 123.092 68.2886C121.355 67.3761 120.236 65.6805 118.685 64.5188C117.979 63.9638 117.144 63.6006 116.26 63.4637C115.241 63.3296 114.229 63.5722 113.232 63.7595C112.172 63.9588 111.077 64.0639 110.096 63.5213C109.233 63.0119 108.557 62.2329 108.171 61.3018C107.969 60.849 107.309 61.2415 107.51 61.6918C108.345 63.5614 110.07 64.8353 112.143 64.688C113.239 64.61 114.299 64.2525 115.398 64.2012C116.4 64.1678 117.383 64.485 118.18 65.0992C119.883 66.3245 121.038 68.2062 122.992 69.0961C123.913 69.516 124.969 69.691 125.94 69.3294C126.778 69.0003 127.477 68.3864 127.915 67.5936C129.197 65.3653 128.373 62.7895 127.395 60.6218C127.191 60.1698 126.531 60.5622 126.734 61.0119Z" fill="#2F2E41"/>
<path d="M118.155 79.1182C117.312 79.0943 116.261 79.0646 115.453 78.4681C115.212 78.2832 115.014 78.0473 114.873 77.7771C114.732 77.5069 114.651 77.2088 114.636 76.9037C114.621 76.6869 114.657 76.4696 114.739 76.2687C114.821 76.0679 114.949 75.8891 115.111 75.7461C115.533 75.3857 116.15 75.3011 116.815 75.4986L116.126 70.4166L116.632 70.3467L117.442 76.3209L117.02 76.1255C116.53 75.8989 115.858 75.7833 115.44 76.1396C115.338 76.2328 115.258 76.3485 115.207 76.4779C115.156 76.6072 115.135 76.7467 115.146 76.8855C115.159 77.1125 115.219 77.3343 115.324 77.5355C115.429 77.7368 115.575 77.913 115.754 78.0519C116.383 78.5161 117.22 78.5763 118.17 78.6029L118.155 79.1182Z" fill="#2F2E41"/>
<path d="M113.625 70.8545H110.876V71.3697H113.625V70.8545Z" fill="#2F2E41"/>
<path d="M122.304 70.8545H119.555V71.3697H122.304V70.8545Z" fill="#2F2E41"/>
<path d="M106.38 97.6819L94.3111 93.9667C93.9347 93.8508 93.617 93.5931 93.4238 93.247C93.2306 92.9009 93.1768 92.493 93.2736 92.1079L94.6826 86.5034C94.7382 86.282 94.8418 86.0758 94.9858 85.8997C95.1298 85.7235 95.3107 85.5818 95.5155 85.4846C95.7203 85.3875 95.9438 85.3374 96.1701 85.3379C96.3963 85.3384 96.6197 85.3895 96.824 85.4876L108.795 91.2319C109.174 91.3772 109.481 91.6684 109.648 92.0417C109.815 92.4149 109.829 92.8398 109.687 93.2234L108.355 96.7813C108.211 97.1649 107.923 97.4752 107.552 97.6441C107.182 97.8129 106.76 97.8265 106.38 97.6819Z" fill="#058B94"/>
<path d="M121.585 94.5112L126.761 106.128C126.922 106.49 127.215 106.776 127.58 106.926C127.944 107.075 128.352 107.078 128.718 106.932L134.047 104.813C134.258 104.729 134.447 104.599 134.602 104.433C134.757 104.266 134.873 104.067 134.943 103.85C135.013 103.633 135.034 103.402 135.004 103.176C134.975 102.949 134.897 102.732 134.775 102.54L127.617 91.278C127.427 90.9165 127.102 90.646 126.714 90.5257C126.326 90.4055 125.907 90.4453 125.548 90.6365L122.22 92.4193C121.861 92.6119 121.593 92.9404 121.474 93.3326C121.355 93.7248 121.394 94.1487 121.585 94.5112Z" fill="#058B94"/>
<path d="M72.5407 56.76L37.0603 49.0333L36.5992 48.9332C36.3644 48.8817 36.12 48.8981 35.894 48.9807C35.6681 49.0632 35.4698 49.2084 35.322 49.3997C35.1741 49.5909 35.0827 49.8204 35.0584 50.0617C35.034 50.303 35.0775 50.5464 35.1841 50.7638L49.2712 79.6441C49.3624 79.8297 49.4964 79.9904 49.6619 80.1128C49.8274 80.2352 50.0197 80.3156 50.2224 80.3473C50.4258 80.3792 50.6338 80.3607 50.8285 80.2933C51.0232 80.2259 51.1988 80.1117 51.34 79.9604L61.1245 69.5451C61.1941 69.4691 61.2786 69.4085 61.3725 69.3671C61.4664 69.3257 61.5678 69.3044 61.6703 69.3044C61.8097 69.3025 61.9469 69.3387 62.0674 69.4095C62.1878 69.4802 62.287 69.5826 62.3542 69.7058L64.3583 73.4482C64.4863 73.6977 64.6932 73.8968 64.9462 74.0139C65.1993 74.1309 65.4838 74.1592 65.7545 74.0941L65.7645 74.0919C66.0386 74.0333 66.2851 73.8833 66.4646 73.6662C66.644 73.449 66.7459 73.1773 66.7539 72.8946L67.1554 64.2559C67.1602 64.1481 67.1869 64.0425 67.2338 63.9455C67.2841 63.8496 67.3524 63.7644 67.4349 63.6948L73.0797 59.0169C73.2653 58.8632 73.4042 58.6598 73.4804 58.43C73.5567 58.2002 73.5674 57.9534 73.5111 57.7178C73.4548 57.4823 73.334 57.2675 73.1623 57.098C72.9907 56.9286 72.7752 56.8115 72.5407 56.76H72.5407ZM72.7574 58.6193L67.1126 63.2971C67.039 63.357 66.9724 63.4249 66.9139 63.4998C66.8611 63.5664 66.8156 63.6385 66.778 63.7149C66.7386 63.793 66.7076 63.8751 66.6854 63.9598L66.686 63.9623C66.6626 64.0506 66.6491 64.1412 66.6458 64.2325L66.2445 72.8712C66.2411 73.041 66.1806 73.2047 66.0728 73.3352C65.9651 73.4657 65.8166 73.5553 65.6517 73.5893L65.6467 73.5905C65.4842 73.6312 65.3129 73.6153 65.1605 73.5455C65.008 73.4756 64.8835 73.3558 64.8069 73.2055L62.8022 69.4606C62.6989 69.268 62.5486 69.1052 62.3655 68.9877C62.1824 68.8702 61.9726 68.8019 61.756 68.7892L61.7536 68.7898C61.7244 68.7884 61.6954 68.787 61.6669 68.7881C61.4648 68.7881 61.2658 68.838 61.0871 68.9334C60.9623 68.9989 60.8496 69.0857 60.7539 69.1899L50.9694 79.6052C50.8845 79.6954 50.7793 79.7635 50.6627 79.8039C50.5462 79.8442 50.4216 79.8556 50.2998 79.837C50.1779 79.8183 50.0623 79.7703 49.9628 79.6969C49.8633 79.6235 49.7828 79.527 49.7281 79.4154L35.641 50.5351C35.578 50.4046 35.5526 50.2589 35.5676 50.1146C35.5827 49.9702 35.6376 49.833 35.7262 49.7186C35.8147 49.6042 35.9332 49.5173 36.0684 49.4676C36.2035 49.4179 36.3497 49.4076 36.4903 49.4377L36.9624 49.5407L72.4316 57.2646C72.5725 57.2953 72.7019 57.3655 72.805 57.4671C72.9082 57.5687 72.9809 57.6975 73.0149 57.8389C73.0489 57.9802 73.0428 58.1284 72.9972 58.2664C72.9517 58.4044 72.8686 58.5267 72.7574 58.6193Z" fill="#3F3D56"/>
<path d="M67.027 63.5511L66.8162 64.0204L66.6859 63.9624L66.6854 63.9598L36.7914 50.2755L61.7535 68.7898L61.7559 68.7893L61.822 68.8405L61.5211 69.256L61.087 68.9334L36.488 50.6915C36.3913 50.6213 36.3219 50.5191 36.2919 50.4027C36.2619 50.2863 36.2731 50.1629 36.3236 50.054C36.3741 49.945 36.4608 49.8573 36.5686 49.806C36.6764 49.7548 36.7986 49.7431 36.914 49.7732C36.9422 49.7801 36.9698 49.7899 36.9962 49.8023L66.9138 63.4998L67.027 63.5511Z" fill="#023C40"/>
</g>
</g>
<defs>
<clipPath id="clip0_12380_22732">
<rect width="220" height="165" fill="white" transform="translate(0 0.5)"/>
</clipPath>
<clipPath id="clip1_12380_22732">
<rect width="168" height="165" fill="white" transform="translate(26 0.5)"/>
</clipPath>
</defs>
</svg>
