<svg width="25" height="25" viewBox="0 0 25 25" fill="none" xmlns="http://www.w3.org/2000/svg">
<path d="M15.6424 10.4331L15.6257 10.4163M9.39243 10.4331L9.37565 10.4163M8.33398 15.6247C8.33398 15.6247 8.46434 15.8854 8.77117 16.2224C9.33169 16.8379 10.4812 17.708 12.5007 17.708C14.5201 17.708 15.6696 16.8379 16.2301 16.2224C16.537 15.8854 16.6673 15.6247 16.6673 15.6247M12.5007 22.9163C6.74768 22.9163 2.08398 18.2526 2.08398 12.4997C2.08398 6.74671 6.74768 2.08301 12.5007 2.08301C18.2536 2.08301 22.9173 6.74671 22.9173 12.4997C22.9173 18.2526 18.2536 22.9163 12.5007 22.9163Z" stroke="#808080" stroke-width="2" stroke-linecap="round" stroke-linejoin="round"/>
</svg>
