<svg width="19" height="21" viewBox="0 0 19 21" fill="none" xmlns="http://www.w3.org/2000/svg">
<path d="M6.90753 2.6309H6.55648H2.17387C1.73361 2.6309 1.36897 2.78167 1.05299 3.09698C0.737684 3.41296 0.586914 3.7776 0.586914 4.21786V18.8266C0.586914 19.267 0.73778 19.6317 1.05329 19.9477C1.3692 20.2628 1.73375 20.4135 2.17387 20.4135H16.7826C17.223 20.4135 17.5877 20.2626 17.9037 19.9471C18.2188 19.6312 18.3695 19.2667 18.3695 18.8266V4.21786C18.3695 3.7776 18.2188 3.41296 17.9034 3.09698C17.5875 2.78167 17.2228 2.6309 16.7826 2.6309H12.4H12.0489L11.9297 2.30072C11.7371 1.76752 11.4201 1.34604 10.9733 1.02346L6.90753 2.6309ZM6.90753 2.6309L7.02676 2.30072M6.90753 2.6309L7.02676 2.30072M7.02676 2.30072C7.21927 1.7676 7.53657 1.34611 7.98416 1.02346L7.98441 1.02328M7.02676 2.30072L7.98441 1.02328M7.98441 1.02328C8.42832 0.702875 8.92117 0.543945 9.47822 0.543945M7.98441 1.02328L9.47822 0.543945M9.47822 0.543945C10.0352 0.543945 10.5284 0.702823 10.9731 1.02328L9.47822 0.543945ZM9.29561 12.0657H8.11214L8.93711 12.9142L9.84439 13.8474C9.94684 13.9612 9.99561 14.0868 9.99561 14.2488C9.99561 14.4116 9.94663 14.5206 9.8551 14.6121C9.76673 14.7005 9.65481 14.7526 9.47822 14.7526C9.30163 14.7526 9.18971 14.7005 9.10134 14.6121L6.38829 11.8991C6.29992 11.8107 6.24778 11.6988 6.24778 11.5222C6.24778 11.3456 6.29992 11.2337 6.38829 11.1453L9.10134 8.43228C9.18971 8.34391 9.30163 8.29177 9.47822 8.29177C9.65481 8.29177 9.76673 8.34391 9.8551 8.43228C9.97652 8.5537 10.0299 8.68124 10.0344 8.83624L10.0345 8.83741C10.039 8.98172 9.99634 9.07985 9.89688 9.17102L9.88887 9.17836L9.88119 9.18604L8.94206 10.1252L8.0885 10.9787H9.29561H12.6087C12.7783 10.9787 12.8972 11.0305 12.9991 11.1318C13.1003 11.2336 13.1521 11.3525 13.1521 11.5222C13.1521 11.6922 13.1002 11.8105 12.9991 11.9116C12.897 12.0137 12.7781 12.0657 12.6087 12.0657H9.29561ZM1.67387 18.8266V19.3266H2.17387H16.7826H17.2826V18.8266V4.21786V3.71786H16.7826H10.2111C10.275 3.6742 10.3359 3.62381 10.3932 3.56654L10.0396 3.21299L10.3932 3.56654C10.6428 3.31695 10.7608 2.99905 10.7608 2.65264C10.7608 2.30623 10.6428 1.9885 10.394 1.73853L10.3923 1.73686C10.1424 1.48807 9.82463 1.37003 9.47822 1.37003C9.13181 1.37003 8.81391 1.4881 8.56432 1.7377C8.31451 1.98751 8.19561 2.30551 8.19561 2.65264C8.19561 2.999 8.31402 3.31653 8.56349 3.56571C8.62084 3.62334 8.68183 3.674 8.74598 3.71786H2.17387H1.67387V4.21786V18.8266Z" fill="#808080" stroke="#808080"/>
</svg>
