<svg width="39" height="40" viewBox="0 0 39 40" fill="none" xmlns="http://www.w3.org/2000/svg">
<path d="M19.9743 22.6088H14.394C13.896 22.6088 13.4783 22.4419 13.1408 22.108C12.8045 21.7752 12.6364 21.3624 12.6364 20.8697C12.6364 20.3769 12.8045 19.9636 13.1408 19.6297C13.4783 19.2969 13.896 19.1306 14.394 19.1306H19.9743L18.3924 17.5653C18.0409 17.2465 17.8728 16.8477 17.888 16.3688C17.9021 15.8911 18.0849 15.4784 18.4364 15.1306C18.7586 14.8117 19.1687 14.6523 19.6667 14.6523C20.1647 14.6523 20.5748 14.8117 20.897 15.1306L25.4667 19.6523C25.7889 19.9711 25.95 20.3769 25.95 20.8697C25.95 21.3624 25.7889 21.7682 25.4667 22.0871L20.897 26.6088C20.5748 26.9277 20.1647 27.0871 19.6667 27.0871C19.1687 27.0871 18.7586 26.9277 18.4364 26.6088C18.1142 26.29 17.953 25.8917 17.953 25.414C17.953 24.9352 18.1142 24.5219 18.4364 24.174L19.9743 22.6088ZM31.9697 33.0436H7.36365V8.69578H31.9697V33.0436ZM31.9697 8.69578V33.0436V8.69578ZM31.9697 36.5219C32.9364 36.5219 33.7642 36.1816 34.4532 35.501C35.141 34.8193 35.4849 34.0001 35.4849 33.0436V8.69578C35.4849 7.73926 35.141 6.92013 34.4532 6.23839C33.7642 5.55781 32.9364 5.21752 31.9697 5.21752H24.5879C24.2071 4.17404 23.5697 3.33346 22.6757 2.69578C21.7828 2.0581 20.7798 1.73926 19.6667 1.73926C18.5536 1.73926 17.55 2.0581 16.656 2.69578C15.7631 3.33346 15.1263 4.17404 14.7455 5.21752H7.36365C6.39698 5.21752 5.56917 5.55781 4.8802 6.23839C4.1924 6.92013 3.8485 7.73926 3.8485 8.69578V33.0436C3.8485 34.0001 4.1924 34.8193 4.8802 35.501C5.56917 36.1816 6.39698 36.5219 7.36365 36.5219H31.9697ZM19.6667 7.39143C19.2859 7.39143 18.9707 7.26795 18.7211 7.021C18.4727 6.7752 18.3485 6.4639 18.3485 6.08708C18.3485 5.71027 18.4727 5.39839 18.7211 5.15143C18.9707 4.90563 19.2859 4.78274 19.6667 4.78274C20.0475 4.78274 20.3621 4.90563 20.6105 5.15143C20.8601 5.39839 20.9849 5.71027 20.9849 6.08708C20.9849 6.4639 20.8601 6.7752 20.6105 7.021C20.3621 7.26795 20.0475 7.39143 19.6667 7.39143Z" fill="#058B94"/>
</svg>
