<svg width="49" height="13" viewBox="0 0 49 13" fill="none" xmlns="http://www.w3.org/2000/svg">
<path d="M7.872 1.92V3.168H4.72V12H3.248V3.168H0.16V1.92H7.872ZM7.551 4.48H9.055L10.335 9.216L10.623 10.896H10.687L11.039 9.216L12.335 4.48H13.855L15.183 9.216L15.519 10.896H15.583L15.935 9.216L17.183 4.48H18.623L16.335 12H14.735L13.455 7.392L13.087 5.536L12.703 7.392L11.391 12H9.871L7.551 4.48ZM20.0776 12V4.48H21.4856V12H20.0776ZM20.7816 2.544C20.5363 2.544 20.323 2.464 20.1416 2.304C19.971 2.13333 19.8856 1.92533 19.8856 1.68C19.8856 1.43467 19.971 1.22667 20.1416 1.056C20.323 0.885333 20.5363 0.799999 20.7816 0.799999C21.0163 0.799999 21.2243 0.885333 21.4056 1.056C21.587 1.22667 21.6776 1.43467 21.6776 1.68C21.6776 1.92533 21.587 2.13333 21.4056 2.304C21.2243 2.464 21.0163 2.544 20.7816 2.544ZM27.7431 5.536H25.5351V9.904C25.5351 10.2773 25.6258 10.528 25.8071 10.656C25.9991 10.784 26.2445 10.848 26.5431 10.848C26.7565 10.848 26.9911 10.8267 27.2471 10.784C27.5031 10.7307 27.7271 10.672 27.9191 10.608L28.1431 11.68C27.9298 11.7653 27.6578 11.84 27.3271 11.904C26.9965 11.968 26.6498 12 26.2871 12C25.5405 12 24.9965 11.84 24.6551 11.52C24.3138 11.1893 24.1431 10.7147 24.1431 10.096V5.536H23.0231V4.48H24.1431V2.08H25.5351V4.48H27.7431V5.536ZM33.415 5.536H31.207V9.904C31.207 10.2773 31.2977 10.528 31.479 10.656C31.671 10.784 31.9163 10.848 32.215 10.848C32.4283 10.848 32.663 10.8267 32.919 10.784C33.175 10.7307 33.399 10.672 33.591 10.608L33.815 11.68C33.6017 11.7653 33.3297 11.84 32.999 11.904C32.6683 11.968 32.3217 12 31.959 12C31.2123 12 30.6683 11.84 30.327 11.52C29.9857 11.1893 29.815 10.7147 29.815 10.096V5.536H28.695V4.48H29.815V2.08H31.207V4.48H33.415V5.536ZM41.6911 8.4H36.2991V8.464C36.2991 9.296 36.5231 9.936 36.9711 10.384C37.4298 10.832 38.0485 11.056 38.8271 11.056C39.2325 11.056 39.5898 11.024 39.8991 10.96C40.2191 10.896 40.5658 10.7893 40.9391 10.64L41.2271 11.68C40.9178 11.8187 40.5498 11.9307 40.1231 12.016C39.7071 12.1013 39.2591 12.144 38.7791 12.144C38.2351 12.144 37.7231 12.0693 37.2431 11.92C36.7738 11.7707 36.3578 11.5413 35.9951 11.232C35.6325 10.912 35.3445 10.5067 35.1311 10.016C34.9285 9.52533 34.8271 8.93867 34.8271 8.256C34.8271 7.66933 34.9125 7.136 35.0831 6.656C35.2645 6.176 35.5151 5.77067 35.8351 5.44C36.1551 5.09867 36.5391 4.83733 36.9871 4.656C37.4458 4.464 37.9578 4.368 38.5231 4.368C39.0031 4.368 39.4351 4.448 39.8191 4.608C40.2138 4.768 40.5498 4.992 40.8271 5.28C41.1045 5.568 41.3178 5.91467 41.4671 6.32C41.6165 6.72533 41.6911 7.17333 41.6911 7.664V8.4ZM40.2351 7.392C40.2351 7.11467 40.1978 6.85867 40.1231 6.624C40.0591 6.37867 39.9525 6.16533 39.8031 5.984C39.6645 5.80267 39.4831 5.65867 39.2591 5.552C39.0351 5.44533 38.7631 5.392 38.4431 5.392C37.8565 5.392 37.3765 5.57867 37.0031 5.952C36.6405 6.32533 36.4165 6.816 36.3311 7.424L40.2351 7.392ZM43.3216 12V4.48H44.3776L44.6176 5.984C44.799 5.504 45.0976 5.11467 45.5136 4.816C45.9296 4.51733 46.4096 4.368 46.9536 4.368C47.231 4.368 47.4603 4.38933 47.6416 4.432C47.823 4.47467 47.9883 4.528 48.1376 4.592L47.8656 5.824C47.7376 5.76 47.5936 5.70667 47.4336 5.664C47.2843 5.62133 47.103 5.6 46.8896 5.6C46.5803 5.6 46.2923 5.65333 46.0256 5.76C45.7696 5.86667 45.5403 6.02667 45.3376 6.24C45.1456 6.45333 44.991 6.72 44.8736 7.04C44.767 7.34933 44.7136 7.70667 44.7136 8.112V12H43.3216Z" fill="#4D4D4D"/>
</svg>
