<svg width="220" height="166" viewBox="0 0 220 166" fill="none" xmlns="http://www.w3.org/2000/svg">
<rect width="220" height="165" transform="translate(0 0.5)" fill="white"/>
<g clip-path="url(#clip0_10799_10792)">
<path d="M17.1838 159.499H202.806C202.9 159.499 202.99 159.462 203.056 159.395C203.123 159.327 203.16 159.236 203.16 159.141C203.16 159.046 203.123 158.955 203.056 158.888C202.99 158.821 202.9 158.783 202.806 158.783H17.1838C17.0897 158.783 16.9995 158.821 16.933 158.888C16.8665 158.955 16.8291 159.046 16.8291 159.141C16.8291 159.236 16.8665 159.327 16.933 159.395C16.9995 159.462 17.0897 159.499 17.1838 159.499Z" fill="#CCCCCC"/>
<path d="M52.8472 72.7372C41.9913 61.9472 37.4063 50.6905 39.9364 41.041C43.1833 28.6579 57.6078 20.0961 79.5112 17.5508L79.5921 18.2611C57.9936 20.7708 43.7892 29.1405 40.6209 41.2239C38.1586 50.6147 42.6771 61.6255 53.344 72.2279L52.8472 72.7372Z" fill="#F0F0F0"/>
<path d="M157.587 111.039C144.039 111.039 129.316 109.006 114.691 105.097C96.6064 100.263 80.0245 92.9667 66.7383 83.9964L67.1317 83.4023C80.354 92.3291 96.8624 99.5922 114.872 104.406C131.148 108.756 147.545 110.772 162.286 110.24L162.312 110.954C160.755 111.011 159.18 111.039 157.587 111.039Z" fill="#F0F0F0"/>
<path d="M188.67 106.543L188.443 105.866C200.561 101.729 208.14 95.0659 210.361 86.5952C213.185 75.8268 207.051 63.3308 193.089 51.409C179.056 39.4266 158.821 29.4843 136.109 23.4138L136.291 22.7227C159.101 28.8199 179.435 38.8137 193.546 50.8633C207.728 62.9732 213.943 75.728 211.046 86.7781C208.761 95.4918 201.024 102.326 188.67 106.543Z" fill="#F0F0F0"/>
<path d="M77.4034 111.338C50.7809 99.4166 30.2662 83.95 19.6387 67.7871L20.2285 67.3916C30.7825 83.4427 51.1895 98.8176 77.6904 110.685L77.4034 111.338Z" fill="#F0F0F0"/>
<path d="M171.006 131.991C168.26 131.991 165.467 131.929 162.627 131.805L162.657 131.091C183.85 132.017 202.548 129.457 216.735 123.685L217 124.348C204.624 129.382 188.851 131.991 171.006 131.991Z" fill="#F0F0F0"/>
<path d="M155.559 18.1923C151.159 16.7458 146.633 15.399 142.107 14.1892C116.061 7.22739 90.4582 4.75558 68.0644 7.0424L67.9932 6.33103C90.4705 4.03672 116.161 6.51445 142.288 13.4981C146.827 14.7114 151.366 16.062 155.779 17.5127L155.559 18.1923Z" fill="#F0F0F0"/>
<path d="M36.2085 73.8104C25.3527 63.0204 20.7677 51.7637 23.2978 42.1142C26.5447 29.7311 40.9691 21.1693 62.8725 18.624L62.9534 19.3343C41.3549 21.844 27.1505 30.2137 23.9823 42.2971C21.5199 51.688 26.0384 62.6988 36.7053 73.3011L36.2085 73.8104Z" fill="#F0F0F0"/>
<path d="M140.95 112.111C127.401 112.111 112.678 110.078 98.0535 106.169C79.9687 101.335 63.3868 94.0389 50.1006 85.0687L50.494 84.4746C63.7163 93.4014 80.2247 100.664 98.2347 105.478C114.51 109.829 130.908 111.845 145.648 111.313L145.674 112.027C144.117 112.083 142.542 112.111 140.95 112.111Z" fill="#F0F0F0"/>
<path d="M172.032 107.615L171.805 106.938C183.922 102.802 191.501 96.1382 193.723 87.6674C196.546 76.8991 190.412 64.4031 176.451 52.4813C162.418 40.4989 142.182 30.5565 119.471 24.486L119.652 23.7949C142.463 29.8921 162.797 39.886 176.908 51.9355C191.09 64.0455 197.305 76.8003 194.407 87.8504C192.122 96.564 184.385 103.399 172.032 107.615Z" fill="#F0F0F0"/>
<path d="M60.7647 112.41C34.1422 100.489 13.6275 85.0223 3 68.8593L3.58979 68.4639C14.1438 84.5149 34.5508 99.8899 61.0517 111.757L60.7647 112.41Z" fill="#F0F0F0"/>
<path d="M154.368 133.063C151.622 133.063 148.829 133.001 145.989 132.877L146.02 132.163C167.212 133.09 185.911 130.529 200.097 124.757L200.362 125.42C187.987 130.455 172.213 133.063 154.368 133.063Z" fill="#F0F0F0"/>
<path d="M138.921 19.2645C134.521 17.8181 129.995 16.4713 125.468 15.2615C99.4227 8.29966 73.8195 5.82786 51.4257 8.11466L51.3545 7.4033C73.8318 5.10899 99.5226 7.58671 125.65 14.5703C130.188 15.7836 134.727 17.1343 139.14 18.585L138.921 19.2645Z" fill="#F0F0F0"/>
<path d="M15.0681 54.6628C20.156 48.9032 28.272 45.3929 35.627 47.4942C28.8417 52.3423 23.9736 59.4575 21.884 67.5807C21.0893 70.7164 20.5289 74.2877 17.946 76.2049C16.3388 77.3979 14.2094 77.6829 12.2329 77.4112C10.2564 77.1394 8.38757 76.3634 6.54394 75.5944L6.04785 75.6378C7.47414 68.0557 9.98015 60.4225 15.0681 54.6628Z" fill="#F2F2F2"/>
<path d="M35.6046 47.6546C29.4553 49.1579 23.9315 52.5792 19.8177 57.4326C18.9138 58.4616 18.1761 59.628 17.6319 60.8889C17.141 62.1344 16.9895 63.49 17.193 64.8147C17.3582 66.0537 17.6693 67.3017 17.5333 68.5597C17.4542 69.2025 17.2414 69.8213 16.9089 70.3753C16.5764 70.9293 16.1316 71.4061 15.6037 71.7744C14.3122 72.7267 12.7588 73.1535 11.2253 73.5177C9.52262 73.922 7.74775 74.3148 6.35982 75.4572C6.19166 75.5956 5.98875 75.3241 6.15667 75.1859C8.57142 73.1982 11.9274 73.4534 14.5991 72.0097C15.8458 71.336 16.8989 70.2789 17.155 68.8284C17.3789 67.5599 17.0592 66.2727 16.8812 65.0196C16.6639 63.7303 16.7626 62.4068 17.1686 61.1649C17.6475 59.8801 18.3395 58.687 19.2149 57.6365C21.1482 55.24 23.4428 53.1653 26.0145 51.4884C28.939 49.5582 32.169 48.1473 35.5648 47.3168C35.775 47.2655 35.8134 47.6037 35.6046 47.6546H35.6046Z" fill="white"/>
<path d="M21.0512 55.7913C20.3383 54.9839 19.933 53.947 19.9075 52.8657C19.882 51.7844 20.2381 50.7292 20.912 49.8884C21.049 49.7188 21.3165 49.9257 21.1794 50.0956C20.5503 50.8773 20.2188 51.8603 20.2446 52.8671C20.2703 53.874 20.6517 54.8384 21.3199 55.5862C21.4649 55.7489 21.1953 55.9531 21.0512 55.7913Z" fill="white"/>
<path d="M17.027 64.198C19.2121 64.3445 21.3715 63.6541 23.0748 62.2645C23.2435 62.1267 23.4464 62.3982 23.278 62.5359C21.5028 63.9786 19.2541 64.6924 16.9806 64.5349C16.7639 64.5197 16.8115 64.1829 17.027 64.198Z" fill="white"/>
<path d="M29.0145 50.0027C29.2259 50.3731 29.525 50.6848 29.8851 50.9096C30.2452 51.1345 30.655 51.2655 31.0776 51.291C31.2944 51.3033 31.2466 51.6402 31.0312 51.6279C30.5644 51.5976 30.112 51.4523 29.7136 51.2048C29.3152 50.9572 28.983 50.6149 28.7458 50.2078C28.7203 50.1714 28.7094 50.1264 28.7155 50.0822C28.7216 50.0379 28.7442 49.9977 28.7786 49.9696C28.8143 49.9426 28.8591 49.931 28.9033 49.9372C28.9475 49.9434 28.9875 49.9669 29.0145 50.0027L29.0145 50.0027Z" fill="white"/>
<path d="M46.0676 71.4048C45.932 71.4009 45.7965 71.3971 45.6591 71.3955C43.8362 71.3533 42.0129 71.4607 40.2072 71.7167C40.0673 71.7342 39.9257 71.7542 39.7866 71.7757C35.4427 72.4392 31.2586 73.9111 27.447 76.1168C25.931 76.9958 24.4835 77.9901 23.117 79.0909C21.2298 80.6113 19.3035 82.4113 17.0941 83.1905C16.8645 83.2744 16.63 83.3439 16.3918 83.3985L6.13875 76.2462C6.12353 76.2181 6.10658 76.1923 6.09124 76.1642L5.66895 75.8975C5.73549 75.8357 5.80583 75.7732 5.87239 75.7114C5.91085 75.6754 5.9516 75.6411 5.99004 75.6051C6.0164 75.5816 6.04289 75.5582 6.06534 75.5355C6.07409 75.5276 6.08296 75.5199 6.09009 75.5144C6.11257 75.4916 6.1358 75.4729 6.15664 75.4526C6.54885 75.1016 6.9442 74.7528 7.34266 74.4062C7.34428 74.4038 7.34428 74.4038 7.34818 74.403C10.3594 71.7324 13.6738 69.4319 17.2218 67.5497C17.3285 67.495 17.4366 67.4379 17.5479 67.3864C19.1497 66.575 20.8145 65.8971 22.5256 65.3596C23.4635 65.0683 24.4155 64.8251 25.3777 64.631C27.8651 64.1342 30.4143 64.0356 32.932 64.3387C37.9508 64.9436 42.7222 67.1625 45.8328 71.1015C45.9124 71.2023 45.9897 71.3016 46.0676 71.4048Z" fill="#F2F2F2"/>
<path d="M45.9543 71.5192C40.148 68.9815 33.6974 68.3554 27.5186 69.7299C26.1833 70.0019 24.8988 70.4848 23.7124 71.1607C22.5777 71.8568 21.6484 72.8471 21.021 74.0285C20.414 75.1181 19.9182 76.3037 19.0595 77.2255C18.613 77.6907 18.0741 78.0554 17.4782 78.2956C16.8824 78.5358 16.2429 78.6462 15.6019 78.6194C14.0028 78.5945 12.5079 77.9911 11.0663 77.3497C9.46575 76.6375 7.81445 75.8721 6.025 75.9406C5.80818 75.9489 5.80811 75.6088 6.02459 75.6005C9.13792 75.4813 11.6653 77.7251 14.6594 78.1965C16.0565 78.4164 17.5278 78.2125 18.5972 77.21C19.5323 76.3334 20.0447 75.1112 20.6498 74.0025C21.2451 72.841 22.1131 71.8443 23.1779 71.0995C24.3264 70.3648 25.5904 69.8328 26.9157 69.5262C29.8884 68.788 32.9577 68.5263 36.011 68.7507C39.4971 68.9873 42.9174 69.8242 46.124 71.2253C46.3224 71.3121 46.1514 71.6055 45.9543 71.5192H45.9543Z" fill="white"/>
<path d="M29.482 69.1695C29.3943 68.0916 29.689 67.0172 30.3134 66.1384C30.9379 65.2595 31.8514 64.6334 32.8908 64.3718C33.1013 64.3196 33.1916 64.6474 32.9808 64.6997C32.0124 64.9415 31.1615 65.5248 30.5817 66.3444C30.0019 67.164 29.7313 68.1658 29.8188 69.1691C29.8376 69.3872 29.5006 69.3863 29.482 69.1695Z" fill="white"/>
<path d="M21.2569 73.4355C22.9142 74.8808 25.05 75.6422 27.2387 75.5681C27.4555 75.5606 27.4557 75.9007 27.2391 75.9083C24.9614 75.9811 22.7403 75.1841 21.0189 73.6763C20.855 73.5325 21.0938 73.2925 21.2569 73.4355Z" fill="white"/>
<path d="M39.2922 69.3886C39.24 69.8128 39.293 70.2435 39.4465 70.6419C39.5999 71.0404 39.8489 71.3941 40.1712 71.6713C40.3369 71.813 40.0979 72.0529 39.9333 71.9121C39.5786 71.6042 39.304 71.2132 39.1336 70.7734C38.9631 70.3335 38.9018 69.8583 38.9553 69.389C38.9566 69.3444 38.9748 69.3019 39.006 69.2703C39.0373 69.2387 39.0793 69.2202 39.1235 69.2188C39.1681 69.2189 39.2108 69.2369 39.2424 69.2687C39.274 69.3005 39.2919 69.3436 39.2921 69.3886H39.2922Z" fill="white"/>
<path d="M214.43 101.878C211.555 94.7265 205.08 88.6662 197.453 88.1494C202.23 95.0181 204.446 103.371 203.71 111.731C203.415 114.954 202.754 118.508 204.548 121.19C205.665 122.859 207.575 123.85 209.527 124.265C211.479 124.68 213.498 124.583 215.49 124.484L215.943 124.693C217.124 117.068 217.304 109.029 214.43 101.878Z" fill="#F2F2F2"/>
<path d="M197.421 88.3085C202.712 91.8111 206.776 96.9079 209.035 102.875C209.544 104.151 209.85 105.5 209.943 106.872C209.991 108.212 209.682 109.54 209.049 110.718C208.481 111.829 207.773 112.899 207.482 114.13C207.343 114.762 207.337 115.417 207.466 116.052C207.595 116.686 207.855 117.286 208.229 117.812C209.129 119.148 210.45 120.077 211.773 120.94C213.242 121.899 214.783 122.871 215.71 124.418C215.822 124.605 216.103 124.418 215.991 124.231C214.379 121.54 211.133 120.641 209.097 118.375C208.147 117.317 207.507 115.964 207.749 114.511C207.96 113.241 208.69 112.137 209.275 111.017C209.909 109.876 210.256 108.597 210.287 107.289C210.264 105.916 210.009 104.558 209.535 103.272C208.512 100.358 207.041 97.6257 205.177 95.1737C203.065 92.3633 200.493 89.9384 197.571 88.0039C197.39 87.8842 197.241 88.1897 197.421 88.3085V88.3085Z" fill="white"/>
<path d="M208.419 100.91C209.359 100.391 210.086 99.5519 210.47 98.5422C210.854 97.5324 210.87 96.4178 210.515 95.3973C210.443 95.191 210.122 95.2951 210.194 95.5016C210.527 96.4513 210.512 97.4896 210.152 98.4291C209.793 99.3687 209.113 100.148 208.234 100.625C208.044 100.729 208.23 101.013 208.419 100.91Z" fill="white"/>
<path d="M209.411 110.193C207.304 109.59 205.5 108.207 204.359 106.32C204.246 106.133 203.964 106.32 204.077 106.506C205.269 108.468 207.149 109.903 209.343 110.526C209.552 110.585 209.619 110.252 209.411 110.193Z" fill="white"/>
<path d="M202.846 92.7561C202.524 93.0332 202.138 93.2252 201.724 93.3148C201.31 93.4044 200.881 93.3887 200.474 93.2693C200.266 93.2074 200.199 93.5408 200.406 93.6023C200.856 93.7322 201.33 93.7489 201.788 93.651C202.245 93.553 202.672 93.3434 203.031 93.0405C203.067 93.0148 203.092 92.9761 203.101 92.9324C203.11 92.8886 203.103 92.8431 203.079 92.805C203.055 92.7674 203.016 92.7412 202.973 92.7321C202.929 92.7229 202.884 92.7316 202.846 92.7561H202.846Z" fill="white"/>
<path d="M179.661 107.125C179.79 107.168 179.919 107.21 180.049 107.255C181.78 107.834 183.461 108.554 185.077 109.408C185.203 109.472 185.329 109.539 185.453 109.606C189.324 111.705 192.774 114.511 195.63 117.882C196.765 119.224 197.797 120.652 198.718 122.153C199.989 124.225 201.204 126.574 203.026 128.057C203.214 128.214 203.412 128.359 203.618 128.492L215.656 125.235C215.679 125.214 215.704 125.195 215.728 125.174L216.214 125.066C216.172 124.985 216.127 124.902 216.084 124.822C216.06 124.775 216.033 124.728 216.009 124.681C215.992 124.65 215.975 124.619 215.961 124.59C215.956 124.58 215.95 124.57 215.945 124.562C215.931 124.533 215.916 124.508 215.903 124.481C215.65 124.018 215.394 123.555 215.134 123.093C215.133 123.091 215.133 123.091 215.13 123.088C213.183 119.551 210.827 116.26 208.112 113.283C208.03 113.196 207.947 113.105 207.859 113.019C206.621 111.711 205.279 110.508 203.846 109.421C203.06 108.828 202.244 108.276 201.402 107.767C199.225 106.455 196.857 105.497 194.385 104.928C189.456 103.794 184.224 104.265 179.983 106.919C179.875 106.987 179.769 107.055 179.661 107.125Z" fill="#F2F2F2"/>
<path d="M179.729 107.272C186.042 106.852 192.326 108.452 197.688 111.843C198.855 112.552 199.904 113.443 200.796 114.482C201.633 115.523 202.179 116.771 202.376 118.096C202.585 119.329 202.658 120.614 203.16 121.773C203.425 122.363 203.811 122.889 204.293 123.318C204.774 123.746 205.339 124.067 205.952 124.259C207.466 124.778 209.075 124.717 210.646 124.603C212.391 124.475 214.201 124.314 215.863 124.986C216.065 125.068 216.178 124.747 215.977 124.666C213.085 123.497 209.957 124.753 206.98 124.181C205.591 123.914 204.274 123.223 203.6 121.915C203.011 120.772 202.935 119.448 202.735 118.198C202.561 116.902 202.075 115.669 201.32 114.606C200.483 113.524 199.47 112.594 198.323 111.856C195.769 110.152 192.966 108.864 190.015 108.039C186.653 107.079 183.153 106.706 179.667 106.938C179.451 106.952 179.515 107.286 179.729 107.272V107.272Z" fill="white"/>
<path d="M196.025 110.648C196.467 109.663 196.547 108.551 196.251 107.511C195.956 106.472 195.304 105.572 194.412 104.973C194.231 104.852 194.037 105.131 194.218 105.251C195.049 105.808 195.657 106.646 195.93 107.614C196.203 108.583 196.125 109.618 195.708 110.534C195.618 110.733 195.936 110.846 196.025 110.648L196.025 110.648Z" fill="white"/>
<path d="M202.352 117.458C200.31 118.257 198.045 118.249 196.008 117.437C195.807 117.356 195.693 117.676 195.895 117.757C198.016 118.599 200.373 118.602 202.496 117.766C202.698 117.686 202.553 117.379 202.352 117.458V117.458Z" fill="white"/>
<path d="M186.713 107.527C186.621 107.944 186.428 108.331 186.151 108.655C185.873 108.978 185.521 109.226 185.125 109.378C184.922 109.455 185.067 109.762 185.269 109.686C185.706 109.516 186.094 109.241 186.401 108.885C186.708 108.528 186.924 108.101 187.03 107.641C187.044 107.599 187.041 107.553 187.022 107.512C187.003 107.472 186.97 107.44 186.928 107.424C186.886 107.409 186.84 107.411 186.8 107.43C186.759 107.45 186.728 107.484 186.713 107.527V107.527Z" fill="white"/>
<path d="M63.084 46.9132C64.6481 46.9132 65.9161 45.633 65.9161 44.0538C65.9161 42.4745 64.6481 41.1943 63.084 41.1943C61.5199 41.1943 60.252 42.4745 60.252 44.0538C60.252 45.633 61.5199 46.9132 63.084 46.9132Z" fill="#058B94"/>
<path d="M171.487 75.1248C171.738 73.566 170.689 72.0972 169.145 71.8443C167.601 71.5913 166.147 72.6499 165.896 74.2088C165.645 75.7676 166.694 77.2363 168.238 77.4893C169.782 77.7422 171.236 76.6836 171.487 75.1248Z" fill="#E6E6E6"/>
<path d="M62.9688 14.7354C64.5329 14.7354 65.8009 13.4552 65.8009 11.876C65.8009 10.2968 64.5329 9.0166 62.9688 9.0166C61.4047 9.0166 60.1367 10.2968 60.1367 11.876C60.1367 13.4552 61.4047 14.7354 62.9688 14.7354Z" fill="#E6E6E6"/>
<path d="M147.472 45.5239H146.664V23.1652C146.664 19.7332 145.313 16.4417 142.91 14.0148C140.506 11.588 137.246 10.2246 133.847 10.2246H86.9301C85.247 10.2246 83.5804 10.5593 82.0253 11.2096C80.4703 11.86 79.0574 12.8132 77.8673 14.0148C76.6771 15.2164 75.733 16.643 75.0889 18.213C74.4448 19.783 74.1133 21.4658 74.1133 23.1652V145.827C74.1133 149.259 75.4636 152.55 77.8672 154.977C80.2709 157.404 83.5309 158.767 86.9301 158.767H133.847C137.246 158.767 140.506 157.404 142.91 154.977C145.313 152.55 146.664 149.259 146.664 145.827V61.4392H147.472V45.5239Z" fill="#3F3D56"/>
<path d="M143.934 23.255V145.737C143.935 147.006 143.687 148.262 143.206 149.434C142.726 150.607 142.021 151.672 141.132 152.569C140.244 153.467 139.189 154.178 138.028 154.664C136.867 155.15 135.623 155.4 134.366 155.4H87.2201C84.6819 155.4 82.2476 154.382 80.4528 152.57C78.6579 150.758 77.6495 148.301 77.6494 145.738V23.255C77.6493 21.9861 77.8968 20.7296 78.3777 19.5572C78.8586 18.3849 79.5635 17.3196 80.4521 16.4223C81.3407 15.525 82.3957 14.8132 83.5568 14.3275C84.7178 13.8419 85.9623 13.5919 87.2191 13.5918H92.9416C92.6598 14.2889 92.5522 15.0452 92.6282 15.7942C92.7042 16.5432 92.9614 17.2618 93.3773 17.8867C93.7932 18.5116 94.3549 19.0237 95.013 19.3778C95.6711 19.7319 96.4053 19.9171 97.151 19.9172H124.03C124.776 19.9166 125.51 19.7311 126.167 19.3768C126.825 19.0226 127.387 18.5106 127.803 17.8858C128.218 17.261 128.476 16.5426 128.552 15.7939C128.628 15.0451 128.521 14.2889 128.24 13.5918H134.364C135.62 13.5917 136.865 13.8416 138.026 14.3271C139.187 14.8127 140.242 15.5244 141.131 16.4216C142.02 17.3188 142.725 18.384 143.206 19.5563C143.687 20.7286 143.934 21.9851 143.934 23.254L143.934 23.255Z" fill="#F2F2F2"/>
<path d="M95.8467 25.2832H81.2217V25.9442H95.8467V25.2832Z" fill="white"/>
<path d="M118.105 25.2832H103.479V25.9442H118.105V25.2832Z" fill="white"/>
<path d="M133.72 104.424H86.0455C85.8848 104.424 85.7258 104.392 85.5774 104.33C85.429 104.268 85.2941 104.177 85.1805 104.062C85.0669 103.948 84.9768 103.812 84.9154 103.662C84.8539 103.512 84.8223 103.351 84.8223 103.189C84.8223 103.027 84.8539 102.866 84.9154 102.717C84.9768 102.567 85.0669 102.431 85.1805 102.316C85.2941 102.201 85.429 102.11 85.5774 102.048C85.7258 101.986 85.8848 101.954 86.0455 101.954H133.72C133.88 101.954 134.039 101.986 134.188 102.048C134.336 102.11 134.471 102.201 134.585 102.316C134.698 102.431 134.788 102.567 134.85 102.717C134.911 102.866 134.943 103.027 134.943 103.189C134.943 103.351 134.911 103.512 134.85 103.662C134.788 103.812 134.698 103.948 134.585 104.062C134.471 104.177 134.336 104.268 134.188 104.33C134.039 104.392 133.88 104.424 133.72 104.424Z" fill="#CCCCCC"/>
<path d="M133.72 113.017H86.0455C85.721 113.017 85.4099 112.887 85.1805 112.655C84.9511 112.424 84.8223 112.109 84.8223 111.782C84.8223 111.454 84.9511 111.14 85.1805 110.909C85.4099 110.677 85.721 110.547 86.0455 110.547H133.72C134.044 110.547 134.355 110.677 134.585 110.909C134.814 111.14 134.943 111.454 134.943 111.782C134.943 112.109 134.814 112.424 134.585 112.655C134.355 112.887 134.044 113.017 133.72 113.017Z" fill="#CCCCCC"/>
<path d="M133.72 121.61H86.0455C85.721 121.61 85.4099 121.48 85.1805 121.248C84.9511 121.016 84.8223 120.702 84.8223 120.375C84.8223 120.047 84.9511 119.733 85.1805 119.501C85.4099 119.27 85.721 119.14 86.0455 119.14H133.72C134.044 119.14 134.355 119.27 134.585 119.501C134.814 119.733 134.943 120.047 134.943 120.375C134.943 120.702 134.814 121.016 134.585 121.248C134.355 121.48 134.044 121.61 133.72 121.61Z" fill="#CCCCCC"/>
<path d="M140.362 25.2832H125.737V25.9442H140.362V25.2832Z" fill="white"/>
<path d="M95.8467 143.925H81.2217V144.586H95.8467V143.925Z" fill="white"/>
<path d="M118.105 143.925H103.479V144.586H118.105V143.925Z" fill="white"/>
<path d="M140.362 143.925H125.737V144.586H140.362V143.925Z" fill="white"/>
<path d="M75.3715 33.7979H72.7529V48.0084H75.3715V33.7979Z" fill="#3F3D56"/>
<path d="M75.3715 49.6611H72.7529V57.9231H75.3715V49.6611Z" fill="#3F3D56"/>
<path d="M75.3715 59.5752H72.7529V67.8372H75.3715V59.5752Z" fill="#3F3D56"/>
<path d="M97.9567 16.9436C98.6798 16.9436 99.266 16.3518 99.266 15.6217C99.266 14.8916 98.6798 14.2998 97.9567 14.2998C97.2336 14.2998 96.6475 14.8916 96.6475 15.6217C96.6475 16.3518 97.2336 16.9436 97.9567 16.9436Z" fill="white"/>
<path d="M139.306 82.5928L155.344 83.2536L157.308 72.3477L143.561 68.0518L139.306 82.5928Z" fill="#FFB8B8"/>
<path d="M145.368 58.9716L145.523 53.8193L137.75 51.8517L123.755 47.7294C123.57 47.1621 123.218 46.665 122.747 46.3037C122.276 45.9425 121.707 45.7342 121.116 45.7063C120.525 45.6785 119.94 45.8325 119.438 46.1479C118.935 46.4633 118.539 46.9252 118.303 47.4726C118.066 48.02 117.999 48.6271 118.112 49.2135C118.224 49.8 118.51 50.3381 118.932 50.7568C119.354 51.1755 119.892 51.4549 120.475 51.5582C121.058 51.6615 121.658 51.5838 122.196 51.3353L135.801 56.982L145.368 58.9716Z" fill="#FFB8B8"/>
<path d="M140.358 58.9357L144.731 52.6387L144.84 52.6533C144.909 52.6625 151.766 53.5888 156.262 54.9404C156.767 55.0756 157.237 55.3204 157.639 55.6578C158.041 55.9952 158.365 56.417 158.589 56.8939C158.91 57.5603 159.032 58.307 158.939 59.0422C158.845 59.7774 158.542 60.4691 158.065 61.0324C157.579 61.6414 156.93 62.0964 156.195 62.3429C155.461 62.5894 154.671 62.617 153.921 62.4225L140.358 58.9357Z" fill="#058B94"/>
<path d="M143.129 154.402L138.681 154.402L136.564 137.08L143.129 137.08L143.129 154.402Z" fill="#FFB8B8"/>
<path d="M177.762 152.459L173.364 153.13L168.707 136.322L174.473 135.331L177.762 152.459Z" fill="#FFB8B8"/>
<path d="M155.998 79.9485L140.614 77.3047L140.067 78.4434C137.123 84.5783 135.384 91.2312 134.948 98.0341C134.576 103.777 134.358 109.842 134.351 116.201C134.34 126.052 134.838 135.193 135.625 143.511L144.068 143.457C143.824 134.626 144.156 125.789 145.062 117.002C145.708 110.736 146.607 104.883 147.645 99.4826C149.573 107.411 152.293 115.121 155.765 122.494C158.715 128.794 164.784 136.077 167.735 142.377C170.758 142.01 173.782 141.644 176.805 141.278C174.422 134.916 170.172 125.626 167.789 119.264C164.382 110.168 162.843 104 159.437 94.9037C159.631 93.1937 159.669 91.4694 159.55 89.7524C159.391 86.8906 158.802 83.4564 157.078 81.167L155.998 79.9485Z" fill="#035D63"/>
<path d="M158.375 75.2069C159.143 76.6569 157.319 79.6606 155.998 79.9485L140.785 74.9834L148.445 52.5723L152.299 53.2795L158.463 54.328L160.649 56.3345C161.2 56.8403 161.593 57.4966 161.781 58.2238C161.969 58.951 161.944 59.7177 161.709 60.4308L158.375 75.2069Z" fill="#035D63"/>
<path d="M147.903 66.5454L143.599 63.7725L137.945 69.506L127.272 79.5318C126.694 79.4019 126.091 79.4521 125.543 79.6757C124.994 79.8993 124.526 80.2858 124.199 80.7841C123.873 81.2823 123.704 81.8688 123.715 82.4661C123.726 83.0633 123.917 83.643 124.261 84.1286C124.606 84.6142 125.088 84.9828 125.645 85.1856C126.201 85.3884 126.805 85.4158 127.378 85.2643C127.95 85.1128 128.463 84.7894 128.849 84.337C129.236 83.8845 129.477 83.3244 129.541 82.7306L141.312 73.8231L147.903 66.5454Z" fill="#FFB8B8"/>
<path d="M145.307 70.8709L142.189 63.8543L142.258 63.7671C142.301 63.7124 146.6 58.2396 150.052 55.0331C150.426 54.6642 150.875 54.382 151.368 54.2062C151.86 54.0304 152.385 53.9653 152.906 54.0154C153.637 54.0783 154.334 54.3553 154.912 54.8125C155.49 55.2697 155.923 55.8872 156.158 56.5892C156.427 57.3221 156.482 58.1178 156.316 58.8812C156.149 59.6446 155.768 60.3434 155.219 60.8942L145.307 70.8709Z" fill="#058B94"/>
<path d="M155.004 51.0747C158.741 51.0747 161.77 48.0162 161.77 44.2434C161.77 40.4706 158.741 37.4121 155.004 37.4121C151.267 37.4121 148.238 40.4706 148.238 44.2434C148.238 48.0162 151.267 51.0747 155.004 51.0747Z" fill="#FFB8B8"/>
<path d="M160.469 54.1424L160.443 54.1358L150.611 51.6528C150.27 51.5668 149.954 51.4013 149.688 51.1697C149.422 50.9381 149.214 50.6469 149.079 50.3192C148.945 49.9916 148.889 49.6367 148.915 49.2831C148.941 48.9295 149.049 48.587 149.229 48.283L149.554 47.7374C149.871 47.2047 150.051 46.6002 150.078 45.9792C150.104 45.3582 149.976 44.7404 149.705 44.1822C149.239 43.2706 148.438 42.5796 147.474 42.2577L147.441 42.2419L147.234 42.1122C147.031 42.0155 146.851 41.877 146.704 41.7057C146.557 41.5343 146.447 41.3339 146.382 41.1172C146.313 40.8927 146.293 40.6562 146.321 40.4231C146.349 40.19 146.425 39.9654 146.544 39.7638C147.412 38.2979 148.711 37.1417 150.261 36.456C152.218 35.6052 154.422 35.5383 156.427 36.2689C156.56 36.1451 156.722 36.0566 156.898 36.0115C157.074 35.9664 157.258 35.9661 157.434 36.0106C162.526 37.2557 162.945 40.7065 161.939 46.2459L163.129 51.0945C163.214 51.4368 163.223 51.7936 163.157 52.1399C163.091 52.4863 162.95 52.8139 162.746 53.1001C162.542 53.3862 162.278 53.6241 161.974 53.797C161.669 53.9699 161.331 54.0739 160.983 54.1015L160.469 54.1424ZM156.372 36.3235L156.372 36.3241L156.372 36.3235ZM156.495 36.2932L156.496 36.2935L156.495 36.2932Z" fill="#2F2E41"/>
<path d="M144.212 158.893H141.674L141.22 156.473L140.06 158.893H133.327C133.004 158.893 132.69 158.789 132.43 158.596C132.17 158.403 131.978 158.131 131.882 157.82C131.786 157.509 131.791 157.175 131.896 156.867C132.001 156.559 132.201 156.293 132.467 156.108L137.844 152.358V149.912L143.499 150.253L144.212 158.893Z" fill="#2F2E41"/>
<path d="M178.47 158.893H175.931L175.478 156.473L174.318 158.893H167.585C167.262 158.893 166.948 158.789 166.688 158.596C166.428 158.403 166.236 158.131 166.14 157.82C166.044 157.509 166.049 157.175 166.154 156.867C166.259 156.559 166.459 156.293 166.725 156.108L172.101 152.358V149.912L177.757 150.253L178.47 158.893Z" fill="#2F2E41"/>
<path d="M113.331 87.3936C112.768 87.3917 112.208 87.3175 111.663 87.1727L111.556 87.1423L111.456 87.0912C107.855 85.2424 104.818 82.8004 102.427 79.833C100.448 77.3623 98.9053 74.5569 97.8679 71.5432C96.6274 67.9351 96.0306 64.1279 96.106 60.3035C96.1075 60.2232 96.1088 60.1612 96.1088 60.1185C96.1088 58.2594 97.1165 56.6282 98.6761 55.9628C99.8698 55.4535 110.707 50.8951 111.491 50.5658C112.965 49.8091 114.538 50.4407 114.79 50.5511C115.355 50.7875 125.374 54.9837 127.539 56.0394C129.77 57.1274 130.365 59.082 130.365 60.0654C130.365 64.5176 129.612 68.6785 128.127 72.4325C126.928 75.4711 125.228 78.2764 123.102 80.726C118.999 85.4536 114.896 87.1295 114.856 87.1443C114.366 87.3171 113.85 87.4015 113.331 87.3936ZM112.366 84.9459C112.722 85.0275 113.541 85.15 114.075 84.9506C114.753 84.6973 118.188 82.8735 121.397 79.175C125.832 74.0649 128.082 67.641 128.085 60.0819C128.077 59.9287 127.971 58.8364 126.558 58.1477C124.435 57.1124 114.022 52.752 113.917 52.7081L113.888 52.6956C113.67 52.602 112.975 52.4047 112.496 52.6616L112.401 52.7074C112.284 52.7562 100.78 57.5947 99.5532 58.1182C98.6949 58.4844 98.3891 59.3916 98.3891 60.1185C98.3891 60.1716 98.3877 60.2489 98.3859 60.3488C98.2878 65.521 99.4566 78.2484 112.366 84.9459Z" fill="#3F3D56"/>
<path d="M111.955 51.7613C111.955 51.7613 100.223 56.6054 98.9655 57.1319C97.7085 57.6585 97.08 58.9221 97.08 60.1858C97.08 61.4495 96.1373 77.9387 111.955 85.9112C111.955 85.9112 113.39 86.3105 114.479 85.9112C115.569 85.5119 129.396 78.7723 129.396 60.1331C129.396 60.1331 129.396 58.2376 127.196 57.1846C124.996 56.1315 114.361 51.7613 114.361 51.7613C114.361 51.7613 113.055 51.1821 111.955 51.7613Z" fill="#058B94"/>
<path opacity="0.64" d="M113.232 55.4199V81.5216C113.232 81.5216 101.165 75.7359 101.272 60.5255L113.232 55.4199Z" fill="#023C40"/>
<path d="M113.427 74.0169L109.677 69.104L111.858 67.3758L113.633 69.7019L119.632 63.25L121.637 65.1864L113.427 74.0169Z" fill="white"/>
</g>
<defs>
<clipPath id="clip0_10799_10792">
<rect width="214" height="154" fill="white" transform="translate(3 5.5)"/>
</clipPath>
</defs>
</svg>
